<?xml version="1.0" encoding="UTF-8"?>
<svg width="461px" height="376px" viewBox="0 0 461 376" version="1.1" xmlns="http://www.w3.org/2000/svg" xmlns:xlink="http://www.w3.org/1999/xlink">
    <title>09CFF33D-7F57-48CA-A890-F594D6095B31@1x</title>
    <defs>
        <polygon id="path-1" points="0 0 461 0 461 316 0 316"></polygon>
        <linearGradient x1="50%" y1="-37.538152%" x2="50%" y2="100%" id="linearGradient-3">
            <stop stop-color="#E02020" offset="0%"></stop>
            <stop stop-color="#6236FF" offset="50.3515657%"></stop>
            <stop stop-color="#B620E0" offset="100%"></stop>
        </linearGradient>
        <polygon id="path-4" points="0 0 461 0 461 195 0 195"></polygon>
        <linearGradient x1="129.622001%" y1="46.8524259%" x2="-43.1054543%" y2="59.6383915%" id="linearGradient-6">
            <stop stop-color="#32C5FF" offset="0%"></stop>
            <stop stop-color="#5DBBAE" offset="59.8020393%"></stop>
            <stop stop-color="#F7B500" offset="100%"></stop>
        </linearGradient>
        <polygon id="path-7" points="0 316 461 316 461 0 0 0"></polygon>
    </defs>
    <g id="Page-1" stroke="none" stroke-width="1" fill="none" fill-rule="evenodd">
        <g id="Desktop-HD" transform="translate(-210.000000, -1766.000000)">
            <g id="Sauvetage" transform="translate(134.367909, 635.000000)">
                <g id="Illustration" transform="translate(75.632091, 1131.000000)">
                    <g id="Group-3" transform="translate(0.000000, 0.000000)">
                        <mask id="mask-2" fill="white">
                            <use xlink:href="#path-1"></use>
                        </mask>
                        <g id="Clip-2"></g>
                        <path d="M451.879642,299.997812 C450.703689,302.554464 449.52415,304.822413 448.415753,306.789667 C448.384067,306.848427 448.350588,306.905088 448.318903,306.963248 C445.110292,312.628774 439.724943,316.01196 433.973118,316 L53.2051121,315.328727 C29.0481644,315.286456 8.10550711,295.435832 2.79100254,267.483549 C-1.87424707,242.946829 -2.10770385,211.890469 13.3306345,181.550318 C21.5309159,165.428244 34.1585064,149.505833 52.8984198,134.872241 C89.8874195,105.982799 50.5829829,86.9143394 79.9967436,54.7568319 C113.798954,17.8008061 150.686619,58.6823473 188.275552,41.9265065 C194.915469,38.9657314 201.579898,34.2046875 208.250006,26.8983842 C214.712963,19.8340156 222.271462,14.237443 230.766479,9.98515117 C242.059091,4.35170388 254.347108,1.39272752 266.866789,0.384816825 C308.865095,-2.96299361 356.12978,15.8638308 380.522576,43.3775142 C385.431147,48.9180251 407.761392,77.5844202 390.161561,116.989171 C380.714782,138.135509 412.935105,158.476598 432.973529,181.550318 C436.510354,185.621234 439.667551,189.77939 442.149486,194.040376 C470.17805,242.169761 461.142585,279.903455 451.879642,299.997812" id="Fill-1" fill="url(#linearGradient-3)" mask="url(#mask-2)"></path>
                    </g>
                    <path d="M85,139.957022 C85,139.957022 89.3999101,130.571405 99.9218902,131.614383 C99.9218902,131.614383 115.197559,115.971194 131.486932,129.528427 C131.486932,129.528427 148.802292,126.169498 161.626376,132.437444 C170.175766,136.616173 173,141 173,141 L85,139.957022 Z" id="Fill-4" fill="#C8C1E1"></path>
                    <path d="M245,50.6506083 C245,50.6506083 250.049985,38.5042573 262.126362,39.8539532 C262.126362,39.8539532 279.658272,19.6094264 298.354294,37.1548656 C298.354294,37.1548656 318.227934,32.8072989 332.945925,40.9188622 C342.75892,46.3270781 346,52 346,52 L245,50.6506083 Z" id="Fill-6" fill="#C8C1E1"></path>
                    <path d="M309,72.2639055 C309,72.2639055 311.400045,65.6387349 317.139205,66.3748294 C317.139205,66.3748294 325.471341,55.3324517 334.356384,64.9026404 C334.356384,64.9026404 343.801257,62.531456 350.79582,66.955704 C355.459264,69.9055227 357,73 357,73 L309,72.2639055 Z" id="Fill-8" fill="#C8C1E1"></path>
                    <g id="Group-12" transform="translate(0.000000, 181.000000)">
                        <mask id="mask-5" fill="white">
                            <use xlink:href="#path-4"></use>
                        </mask>
                        <g id="Clip-11"></g>
                        <path d="M318,180 C198,193.622354 98.3757029,144.695312 65.0277078,144.636356 C31.6797127,144.577401 8.10462916,114.105124 2.79042206,86.0984856 C-0.411613409,69.2200105 -1.52718439,49.2597239 3.08904355,28.5692341 C5.19314434,19.1234517 8.49292678,9.52748348 13.3315515,0 L432.975158,0 C436.51049,4.07844417 439.667986,8.24549794 442.15052,12.5143776 C445.340898,18.0057693 448.051807,23.3592905 450.335559,28.5692341 C468.117139,69.1163824 458.543914,107.262862 450.335559,125.104328 C440.605999,141.429352 395.5,169.781231 318,180 Z" id="Fill-10" fill="url(#linearGradient-6)" mask="url(#mask-5)"></path>
                    </g>
                    <path d="M319.250898,145 C319.250898,145 320.559005,143.477405 319.71802,143.227981 C318.876756,142.978556 317.905043,142.824775 318.00746,143.362382 C318.109877,143.899989 318.288621,144.533657 318.288621,144.533657 L319.250898,145 Z" id="Fill-13" fill="#FFB27D"></path>
                    <path d="M317.629419,144.885109 C317.629419,144.885109 314.922959,146.942794 313.403008,147.050923 C312.483554,147.116741 309.178106,142.957002 307.552239,142.431635 C307.197071,142.316454 306,142 306,142 L306.873285,147.129376 C306.873285,147.129376 311.223115,150.192839 313.644414,149.99039 C316.406095,149.759735 319,145.858565 319,145.858565 L317.629419,144.885109 Z" id="Fill-15" fill="#C8C1E1"></path>
                    <path d="M307.762603,153 L318,178.66957 C318,178.66957 317.90973,179.688091 316.125147,180 C316.125147,180 312.927315,176.689429 310.266999,172.374788 C310.223623,172.304037 310.179953,172.232984 310.136577,172.16163 C309.185815,170.597268 307.885991,168.406679 306.603165,166.231445 C304.271688,162.276884 302,158.373205 302,158.373205 L307.762603,153 Z" id="Fill-17" fill="#552748"></path>
                    <path d="M306.293501,155.159255 L311,182.079393 C311,182.079393 309.594482,183.347035 308.286649,182.907313 C308.286649,182.907313 304.110746,174.709245 303.668128,171.404671 C303.309846,168.731401 296.379637,156.864545 300.088349,154.826725 C303.796757,152.7892 306.293501,155.159255 306.293501,155.159255" id="Fill-19" fill="#552748"></path>
                    <path d="M308.730412,157.711034 C307.394364,158.449592 305.636505,159.014286 302.673516,158.999725 C299.825822,158.985746 298.046404,158.357272 298.093584,157.720062 C298.117018,157.402913 298.138578,157.076736 298.153575,156.73658 C298.219503,155.271986 298.17201,153.538296 297.689896,151.06896 C297.565227,150.428547 297.414312,149.748817 297.285582,149.157912 L297.285269,149.156165 L297.284957,149.156165 C297.128731,148.435954 297.004687,147.847379 297,147.622841 C297,147.622841 297.656776,143.813849 298.29043,143.17227 C298.51727,142.943364 298.857844,142.742415 299.276843,142.573502 C299.27903,142.573211 299.279967,142.57292 299.280905,142.572337 C301.26498,141.777863 305.001289,141.724568 306.734777,142.962585 C306.970991,143.131498 307.846796,144.340683 307.955842,145.694027 C308.108006,147.580612 309.597781,157.23167 308.730412,157.711034" id="Fill-21" fill="#C8C1E1"></path>
                    <path d="M302.018178,141.999951 C301.892276,141.769397 302.457633,141.492193 302.569902,140.003787 C302.571239,139.98439 302.721199,140.041107 302.94547,140.137355 C303.612404,140.42389 304.939321,141.060796 304.997862,141.089032 C304.999198,141.089278 305,141.089278 305,141.089278 C305,141.089278 304.948944,141.396927 304.883186,141.953545 C304.877038,142.002652 304.871158,142.053967 304.865009,142.107002 C304.857792,142.172313 304.847634,142.241307 304.842288,142.312757 C304.763165,143.433604 302.607058,143.079058 302.018178,141.999951" id="Fill-23" fill="#FFB27D"></path>
                    <path d="M303.904834,140.999797 C303.011106,141.02251 302,139.130057 302,139.130057 C302.107578,139.068138 302.216681,139.025417 302.32622,139 C302.869556,139.315544 303.950566,140.016663 303.998476,140.047757 C303.999564,140.048028 304,140.048028 304,140.048028 C304,140.048028 303.958406,140.386825 303.904834,140.999797" id="Fill-25" fill="#ED975D"></path>
                    <path d="M306.223321,140.951478 C306.223321,140.951478 305.624277,141.034574 304.893727,140.98328 C303.825414,140.907707 302.476095,140.545572 302.308252,139.214664 C302.025168,136.974827 301.365562,135.530731 303.67349,135.114566 C304.908608,134.891608 305.642272,135.017107 306.100812,135.293069 C306.499137,135.531757 306.689128,135.885343 306.818558,136.222174 C307.097143,136.947129 307.161165,140.762374 306.223321,140.951478" id="Fill-27" fill="#FFB27D"></path>
                    <path d="M306.796788,134.097986 C307.335495,134.880864 306.731185,135.968091 305.827233,135.838555 C305.464647,135.786677 305.174461,135.706503 304.95224,135.757752 C304.458746,135.871568 304.219681,136.659791 304.161467,136.914148 C304.103548,137.169134 304.029376,137.378216 303.445752,137.088645 C303.350008,137.041484 303.276131,137.03268 303.220281,137.053746 C302.934231,137.15813 303.107102,138.008606 303.172409,138.199138 C303.172409,138.199138 303.204323,138.788341 302.838192,138.99082 C302.793866,139.014716 302.122181,139.165003 301.11096,136.421155 C300.951978,135.990414 300.896127,135.087117 301.417104,134.344168 C301.937785,133.601219 303.590254,133.027108 304.953718,133.000384 C305.795023,132.98372 306.393422,133.512556 306.796788,134.097986" id="Fill-29" fill="#66192D"></path>
                    <path d="M305,138.962293 C305,138.962293 304.990731,139.028193 304.468485,139.048229 C304.468485,139.048229 304.029926,139.065046 304,138.995042 C304,138.995042 304.389301,138.921578 305,138.962293" id="Fill-31" fill="#FFFFFF"></path>
                    <path d="M300.980691,141 C300.980691,141 302.91654,144.321043 303.530754,150.362091 C304.144967,156.403446 303.979798,160.696576 303.979798,160.696576 C303.979798,160.696576 299.61741,161.769245 298,159.880881 L298.630362,149.256303 C298.630362,149.256303 300.594542,149.53689 298.736319,142.105174 C298.736319,142.105174 299.532417,141.349277 300.980691,141" id="Fill-33" fill="#FF8548"></path>
                    <path d="M304,141.027955 C304,141.027955 305.163185,140.894853 306.092258,141.209515 C307.174026,141.575394 307.298455,141.956301 307.298455,141.956301 C309.096076,145.941409 311,157.012243 311,157.012243 C310.412263,159.213345 307.850553,160 307.850553,160 C307.475729,149.643136 304,141.027955 304,141.027955" id="Fill-35" fill="#FF8548"></path>
                    <path d="M297.318385,156.143339 C297.318385,156.143339 297.859414,156.666766 297.991476,156.620881 C298.377125,156.486965 298.560084,155.98733 298.92376,156.000246 C299.287436,156.013162 300.076895,156.557322 299.993936,156.705853 C299.692367,157.244914 299.185419,157.014131 298.964567,157.346541 C298.811429,157.578004 298.731608,158.035833 298.140131,157.997766 C297.548653,157.960038 297,157.274145 297,157.274145 L297.318385,156.143339 Z" id="Fill-37" fill="#FFB27D"></path>
                    <path d="M297.95,157 C297.95,157 298.014868,156.275955 298.022594,156.069195 C298.030319,155.862436 298.049632,156.164831 298.04485,156.376624 C298.040129,156.588417 298.05,156.751424 298.05,156.751424 L297.95,157 Z" id="Fill-39" fill="#FFB27D"></path>
                    <path d="M449,210 L2,210 C4.10294104,200.742619 7.40090469,191.337455 12.2368624,182 L431.649168,182 C435.182551,185.997224 438.338307,190.081294 440.819473,194.265161 C444.008092,199.6469 446.717507,204.893809 449,210" id="Fill-41" fill="#553E93"></path>
                    <path d="M299.973106,142 C299.973106,142 297.012072,142.983433 295.045199,145.947489 C293.078327,148.911832 292.503936,150.871245 293.435832,152.243923 C294.368026,153.616028 296.164488,156.033479 297.824204,157 C297.824204,157 298.610714,156.790186 298.475161,155.621016 C298.475161,155.621016 296.269058,151.720534 296.305702,151.173641 C296.374522,150.15524 299.000991,147.432814 299.577765,146.869009 C300.153944,146.305492 299.973106,142 299.973106,142" id="Fill-43" fill="#C8C1E1"></path>
                    <path d="M298.804594,149 L303,147.388727 C302.038798,143.882886 300.668732,142 300.668732,142 C298.947393,142.332652 298,143.052278 298,143.052278 C299.056514,146.437792 299.073353,148.142231 298.804594,149" id="Fill-45" fill="#FF8548"></path>
                    <path d="M320,142.976239 C320,142.976239 319.671914,141.847095 318.487083,142.017518 C317.302917,142.187697 318.609617,143.009004 318.93073,143.256447 C319.252175,143.50438 319.40526,144 319.40526,144 L320,142.976239 Z" id="Fill-47" fill="#FFB27D"></path>
                    <mask id="mask-8" fill="white">
                        <use xlink:href="#path-7"></use>
                    </mask>
                    <g id="Clip-50"></g>
                    <polygon id="Fill-49" fill="#FFBA41" mask="url(#mask-8)" points="188 127 190 127 190 88 188 88"></polygon>
                    <polygon id="Fill-51" fill="#FFBA41" mask="url(#mask-8)" points="185 98.05 191 98.05 191 97.95 185 97.95"></polygon>
                    <polygon id="Fill-52" fill="#FFBA41" mask="url(#mask-8)" points="182 102.05 189 102.05 189 101.95 182 101.95"></polygon>
                    <polygon id="Fill-53" fill="#FFBA41" mask="url(#mask-8)" points="180 107.05 190 107.05 190 106.95 180 106.95"></polygon>
                    <polygon id="Fill-54" fill="#FFBA41" mask="url(#mask-8)" points="195 128 198 128 198 71 195 71"></polygon>
                    <polygon id="Fill-55" fill="#FFBA41" mask="url(#mask-8)" points="196 83 205 83 205 82 196 82"></polygon>
                    <polygon id="Fill-56" fill="#FFBA41" mask="url(#mask-8)" points="196 90 206 90 206 89 196 89"></polygon>
                    <polygon id="Fill-57" fill="#FFBA41" mask="url(#mask-8)" points="196 97 211 97 211 96 196 96"></polygon>
                    <polygon id="Fill-58" fill="#FFBA41" mask="url(#mask-8)" points="191 224 264 224 264 126 191 126"></polygon>
                    <polygon id="Fill-59" fill="#FFCE80" mask="url(#mask-8)" points="159 224 225 224 225 126 159 126"></polygon>
                    <polygon id="Fill-60" fill="#FFBA41" mask="url(#mask-8)" points="205 158 217 158 217 139 205 139"></polygon>
                    <polygon id="Fill-61" fill="#FFBA41" mask="url(#mask-8)" points="189 147 195 147 195 138 189 138"></polygon>
                    <polygon id="Fill-62" fill="#F7A219" mask="url(#mask-8)" points="231 147 237 147 237 138 231 138"></polygon>
                    <polygon id="Fill-63" fill="#FFBA41" mask="url(#mask-8)" points="176 147 182 147 182 138 176 138"></polygon>
                    <polygon id="Fill-64" fill="#FFBA41" mask="url(#mask-8)" points="165 147 171 147 171 138 165 138"></polygon>
                    <polygon id="Fill-65" fill="#FFBA41" mask="url(#mask-8)" points="189 172 195 172 195 163 189 163"></polygon>
                    <polygon id="Fill-66" fill="#FFBA41" mask="url(#mask-8)" points="176 172 182 172 182 163 176 163"></polygon>
                    <polygon id="Fill-67" fill="#FFBA41" mask="url(#mask-8)" points="165 172 171 172 171 163 165 163"></polygon>
                    <polygon id="Fill-68" fill="#F7A219" mask="url(#mask-8)" points="225 127 232.337784 121 271 121 263.115449 127"></polygon>
                    <polygon id="Fill-69" fill="#FFBA41" mask="url(#mask-8)" points="232 121 158 121 158 127 224.59634 127"></polygon>
                    <polygon id="Fill-70" fill="#FF443C" mask="url(#mask-8)" points="153 120 276 120 276 117 153 117"></polygon>
                    <path d="M188,216 L229.301663,178.659939 C232.473894,175.791646 236.424644,174.084252 240.573547,173.788418 L391.630462,163.009956 C393.994797,162.841077 396,164.842238 396,167.371001 L396,179.02427 L254.715488,188.774693 C248.049365,189.234978 241.712396,192.029755 236.687248,196.726491 L223.174537,209.356131 C220.252319,212.08743 216.577663,213.730462 212.703955,214.03781 L188,216 Z" id="Fill-71" fill="#FF443C" mask="url(#mask-8)"></path>
                    <path d="M185,197 L189.262759,224.581201 C189.262759,224.581201 189.878395,225.412077 191.646659,224.733206 C191.646659,224.733206 192.784235,220.178528 192.91326,215.043692 C192.914796,214.959514 192.916947,214.874731 192.918176,214.79025 C192.952275,212.936222 192.971936,210.355784 192.98361,207.798055 C193.005114,203.148602 192.999277,198.574243 192.999277,198.574243 L185,197 Z" id="Fill-72" fill="#552748" mask="url(#mask-8)"></path>
                    <path d="M174,195.992394 C174.035989,196.036749 178.421598,195.892519 179.604788,195.416717 C180.357699,195.11306 181.76224,194.413935 183.251181,193.109666 C184.081485,192.382625 184.943956,191.48313 185.751328,190.402805 C186.461242,189.453992 186.313781,188.948103 186.729093,187.667718 C188.01834,183.694429 184.370037,183.430473 182.841284,184.625872 C181.783579,185.452167 181.306162,186.413077 180.99659,187.600721 C180.630008,189.007036 180.451653,190.493995 178.916531,192.24553 C177.759775,193.565927 174,194.400287 174,194.400287 L174,195.992394 Z" id="Fill-73" fill="#552748" mask="url(#mask-8)"></path>
                    <path d="M187,199.409118 L197.21721,224.930801 C197.21721,224.930801 199.10408,225.313836 200,224.277564 C200,224.277564 199.258086,215.125413 197.887622,212.060245 C196.778418,209.580616 196.469185,195.886982 192.184538,196.000704 C187.899586,196.113833 187,199.409118 187,199.409118" id="Fill-74" fill="#552748" mask="url(#mask-8)"></path>
                    <path d="M185.362215,200.91716 C186.864015,201.116682 188.676121,201.012522 191.342563,199.96723 C193.904959,198.962807 195.25786,197.77731 194.959148,197.220464 C194.810555,196.943176 194.660436,196.657374 194.509706,196.35653 C193.861632,195.060629 193.208371,193.48375 192.651222,191.093741 C192.50629,190.473604 192.369291,189.809476 192.247853,189.232763 L192.247243,189.23106 L192.247548,189.230776 C192.09926,188.528333 191.974771,187.95531 191.888728,187.75153 C191.888728,187.75153 189.766314,184.551796 188.936694,184.195607 C188.640117,184.068174 188.252005,184.005735 187.806835,184.000342 L187.802563,184.000342 C185.694186,183.976218 182.302779,185.230114 181.236996,186.947765 C181.091759,187.182197 180.787554,188.575447 181.233029,189.831614 C181.853643,191.582755 184.387358,200.788024 185.362215,200.91716" id="Fill-75" fill="#552748" mask="url(#mask-8)"></path>
                    <path d="M97,223 L101.866226,223 C102.214764,222.823184 101.772093,221.092749 101.772093,221.092749 C101.772093,221.092749 100.443732,220.715543 100.214873,221.482529 C99.9842643,222.249254 98.5232765,222.492867 97.7495654,222.586383 C97.2204604,222.650822 97.0528405,222.868764 97,223" id="Fill-76" fill="#243F66" mask="url(#mask-8)"></path>
                    <path d="M99,201 L101.060199,221.641347 C101.060199,221.641347 101.492171,222.282686 102.86204,221.850126 C102.86204,221.850126 103.918642,218.516384 104.234448,214.710897 C104.239209,214.64814 104.244287,214.58569 104.249048,214.522934 C104.35347,213.148415 104.478523,211.234192 104.595959,209.336193 C104.810199,205.886734 105,202.491766 105,202.491766 L99,201 Z" id="Fill-77" fill="#552748" mask="url(#mask-8)"></path>
                    <path d="M101,206 C101,206 101.480786,210.238797 101.646589,211.527172 C102.000216,214.269874 102.754102,215 102.754102,215 C102.75734,214.942143 102.760794,214.884286 102.764033,214.826429 C102.83506,213.559221 102.920121,211.794443 103,210.044906 L101,206 Z" id="Fill-78" fill="#4F1A44" mask="url(#mask-8)"></path>
                    <path d="M91.849788,195.572173 C91.849788,195.572173 91.5436132,195.242786 91.3790057,195.196423 C91.2143982,195.150061 90.8956344,194.931523 90.8543043,195.021509 C90.8129743,195.111706 91.0683179,195.250794 91.0547787,195.353846 C91.0488405,195.399155 90.851454,195.401263 90.6324523,195.399366 C90.3545435,195.396416 90.0163024,195.26386 90.0039509,195.323921 C89.9578703,195.543723 90.3224771,195.943708 90.7010982,195.979323 C91.0060853,196.007773 91.4300744,195.951927 91.9395739,195.999554 C92.1160579,196.015992 91.849788,195.572173 91.849788,195.572173" id="Fill-79" fill="#FFB27D" mask="url(#mask-8)"></path>
                    <path d="M92.0060231,196.346636 C92.0203321,196.38659 93.4897055,196.6317 94.7619328,196.809587 C95.5110875,196.914544 96.191877,196.99667 96.4672454,196.999841 C97.0656788,197.0065 98.2113512,196.805148 99.5659347,196.235972 C100.321131,195.918882 101.141194,195.487323 101.968254,194.913708 C102.694832,194.41017 102.717408,194.015077 103.321565,193.206181 C105.196996,190.693563 102.732035,189.630996 101.376498,190.113289 C100.4391,190.446868 99.870557,191.014775 99.3627472,191.783717 C98.761134,192.694081 98.270495,193.7075 96.7731396,194.582984 C95.644638,195.243165 92.2823454,195.423906 92.2823454,195.423906 C92.2823454,195.423906 92.0845635,195.566596 92.035277,195.809487 C91.980267,196.079013 92.0060231,196.346636 92.0060231,196.346636" id="Fill-80" fill="#C8C1E1" mask="url(#mask-8)"></path>
                    <path d="M104,223 L108.866226,223 C109.214764,222.823184 108.772093,221.092749 108.772093,221.092749 C108.772093,221.092749 107.443732,220.715543 107.214873,221.482529 C106.984264,222.249254 105.523277,222.492867 104.749565,222.586383 C104.22046,222.650822 104.052841,222.868764 104,223" id="Fill-81" fill="#243F66" mask="url(#mask-8)"></path>
                    <path d="M101,202.350978 L107.052671,221.910976 C107.052671,221.910976 108.340351,222.274249 109,221.533135 C109,221.533135 108.847088,214.635801 108.020731,212.281658 C107.352459,210.37637 107.676679,200.089701 104.713577,200.002297 C101.750476,199.914893 101,202.350978 101,202.350978" id="Fill-82" fill="#552748" mask="url(#mask-8)"></path>
                    <path d="M99.2822648,202.245357 C100.245502,202.751788 101.49513,203.107862 103.557685,202.970212 C105.539598,202.838613 106.750686,202.284081 106.689316,201.80034 C106.659076,201.559528 106.629429,201.312061 106.603636,201.0534 C106.492162,199.939192 106.448285,198.615636 106.673307,196.71274 C106.731712,196.219318 106.806126,195.694736 106.869274,195.238827 L106.869274,195.237315 L106.869867,195.237315 C106.946654,194.681572 107.006541,194.227781 106.999426,194.056248 C106.999426,194.056248 106.372388,191.180425 105.901887,190.718163 C105.734084,190.553286 105.487716,190.414426 105.188576,190.303701 C105.18739,190.303398 105.186501,190.303398 105.185611,190.302793 C103.768772,189.781841 101.164268,189.899827 100.013068,190.917529 C99.8562342,191.056691 99.3000531,192.015097 99.2846366,193.051555 C99.2629942,194.496123 98.6567094,201.917115 99.2822648,202.245357" id="Fill-83" fill="#C8C1E1" mask="url(#mask-8)"></path>
                    <path d="M103.973525,189.512829 C104.094378,189.364696 103.753516,189.088263 103.905655,188.004565 C103.907422,187.990364 103.797165,188.010442 103.63014,188.048883 C103.13285,188.162982 102.133476,188.437946 102.08907,188.450189 L102.087557,188.450189 C102.087557,188.450189 102.075446,188.678142 102.034068,189.086549 C102.030788,189.122786 102.027004,189.160493 102.022967,189.199424 C102.017669,189.247169 102.014136,189.298342 102.006567,189.35025 C101.887985,190.165349 103.407356,190.206729 103.973525,189.512829" id="Fill-84" fill="#FFB27D" mask="url(#mask-8)"></path>
                    <path d="M101,188.983418 C101.801964,189.14032 103,188.132066 103,188.132066 C102.912439,188.076826 102.82024,188.032959 102.725314,188 C102.18767,188.10816 101.107474,188.368811 101.059465,188.380184 L101.057829,188.380184 C101.057829,188.380184 101.044463,188.596271 101,188.983418" id="Fill-85" fill="#ED975D" mask="url(#mask-8)"></path>
                    <path d="M101.211971,188.824327 C101.211971,188.824327 101.526806,188.926061 101.928286,188.974707 C102.514765,189.04557 103.286501,189.003941 103.528742,188.365471 C103.936987,187.291533 104.458417,186.64745 103.256839,186.208941 C102.614159,185.974134 102.202531,185.961973 101.923082,186.051545 C101.680321,186.128723 101.537214,186.283312 101.428973,186.43603 C101.195579,186.764854 100.726188,188.636295 101.211971,188.824327" id="Fill-86" fill="#FFB27D" mask="url(#mask-8)"></path>
                    <path d="M101.299118,184.568677 C100.710576,185.076247 101.043943,186.00924 101.833903,186.063336 C102.150864,186.085042 102.411275,186.07302 102.591049,186.14949 C102.992137,186.320127 103.064396,186.963605 103.071378,187.167301 C103.078359,187.371998 103.106634,187.544305 103.651193,187.422088 C103.740207,187.402052 103.804437,187.408063 103.84877,187.433107 C104.074273,187.561335 103.785936,188.182774 103.699016,188.317347 C103.699016,188.317347 103.573698,188.762139 103.851563,188.978524 C103.885423,189.00457 104.431378,189.232977 105.747046,187.306549 C105.954048,187.004344 106.151276,186.323132 105.831872,185.666964 C105.512816,185.011131 104.203082,184.292519 103.048688,184.041405 C102.335874,183.886463 101.738954,184.189335 101.299118,184.568677" id="Fill-87" fill="#66192D" mask="url(#mask-8)"></path>
                    <path d="M101.000568,187.950031 C101.000568,187.950031 100.963705,187.99975 101.483921,188.039275 C101.483921,188.039275 101.920632,188.072616 102,188.021727 C102,188.021727 101.653565,187.948276 101.000568,187.950031" id="Fill-88" fill="#FFFFFF" mask="url(#mask-8)"></path>
                    <path d="M94,196.832374 C94.7696806,196.92477 95.469123,196.997068 95.7520362,196.99986 C96.3668659,197.005722 97.5439285,196.828466 98.935626,196.327403 C98.99247,196.158242 99.0496407,195.096939 98.9281122,195.025478 C98.5596063,194.809142 97.8268416,196.032628 96.5965287,196.350014 C95.5494886,196.620225 94.3381237,196.788269 94,196.832374" id="Fill-89" fill="#C8C1E1" mask="url(#mask-8)"></path>
                    <path d="M106.543209,200.983915 C106.656868,201.026291 106.742759,200.981052 106.807338,200.893723 C106.726399,199.839195 106.694324,198.586531 106.85771,196.785558 C106.900117,196.318565 106.954149,195.822081 107,195.390592 L107,195.38916 C107,195.38916 106.321486,194.612365 106.088785,195.253729 C105.855869,195.895666 106.520821,197.59843 106.155087,198.615736 C105.789352,199.633328 106.132484,200.830446 106.543209,200.983915" id="Fill-90" fill="#C8C1E1" mask="url(#mask-8)"></path>
                    <path d="M103.617197,190.002154 C103.617197,190.002154 101.384829,196.772922 102.165718,203.869278 C102.165718,203.869278 104.645079,204.392165 107,203.346392 L106.073304,195.860607 C106.073304,195.860607 103.570375,193.462019 106.187373,191.032726 C106.187373,191.032726 105.089101,189.945305 103.617197,190.002154" id="Fill-91" fill="#FF8548" mask="url(#mask-8)"></path>
                    <path d="M107.640136,201.000206 C107.640136,201.000206 107.123532,201.295047 106.990743,201.277633 C106.602684,201.226584 106.401681,200.977544 106.041514,201.001637 C105.681044,201.025014 104.918568,201.342279 105.007094,201.414796 C105.327243,201.678388 105.821109,201.535738 106.053641,201.696994 C106.214625,201.808872 106.31164,202.040976 106.897063,201.993744 C107.482487,201.946512 108,201.567942 108,201.567942 L107.640136,201.000206 Z" id="Fill-92" fill="#FFB27D" mask="url(#mask-8)"></path>
                    <path d="M107.05,201.05 C107.05,201.05 106.979935,200.977903 106.970555,200.956861 C106.961093,200.935873 106.944943,200.967735 106.951631,200.98943 C106.958238,201.01107 106.95,201.028306 106.95,201.028306 L107.05,201.05 Z" id="Fill-93" fill="#FFB27D" mask="url(#mask-8)"></path>
                    <path d="M104,190 C104,190 106.410313,190.655342 108.125306,192.955339 C109.840299,195.255336 110.395778,196.809253 109.720852,197.959881 C109.045602,199.110195 107.732651,201.14333 106.45725,202 C106.45725,202 105.81955,201.867041 105.869724,200.918056 C105.869724,200.918056 107.435489,197.669073 107.378841,197.229553 C107.273636,196.411321 105.044598,194.337228 104.557098,193.90905 C104.069597,193.481503 104,190 104,190" id="Fill-94" fill="#C8C1E1" mask="url(#mask-8)"></path>
                    <path d="M107,198 C105.356899,197.929394 103.314988,197.840222 102,197.784243 C102.379595,193.384146 103.76927,190.002075 103.76927,190.002075 C105.466391,189.948346 106.735697,190.955964 106.735697,190.955964 C103.715249,193.203833 106.601914,195.422447 106.601914,195.422447 L107,198 Z" id="Fill-95" fill="#FF8548" mask="url(#mask-8)"></path>
                    <path d="M101,190.003857 C101,190.003857 99.362094,200.78324 99.9650994,203.998588 C99.9650994,203.998588 98.6476006,204.084437 98,202.917438 C98,202.917438 99.0339312,191.738452 99.6454193,190.713506 C99.6454193,190.713506 100.182986,189.939006 101,190.003857" id="Fill-96" fill="#FF8548" mask="url(#mask-8)"></path>
                    <path d="M186.990706,183.830691 C187.080375,183.598374 186.499338,183.399111 186.189642,182.002864 C186.185496,181.984579 186.048918,182.055376 185.846514,182.171651 C185.244486,182.5179 184.054942,183.270176 184.002073,183.303699 C184.000777,183.304168 184,183.304403 184,183.304403 C184,183.304403 184.091224,183.5897 184.229616,184.10919 C184.242055,184.155138 184.254754,184.202961 184.267712,184.25266 C184.28378,184.313611 184.302958,184.378078 184.317471,184.445124 C184.545532,185.496998 186.570607,184.918901 186.990706,183.830691" id="Fill-97" fill="#FFB27D" mask="url(#mask-8)"></path>
                    <path d="M184.204312,184 C185.145394,183.892572 186,182.069199 186,182.069199 C185.880318,182.029035 185.760867,182.007017 185.64303,182 C185.107345,182.357609 184.048887,183.134043 184.001845,183.168401 C184.000692,183.168885 184,183.169127 184,183.169127 C184,183.169127 184.081402,183.463586 184.204312,184" id="Fill-98" fill="#ED975D" mask="url(#mask-8)"></path>
                    <path d="M183.261913,184 C183.261913,184 183.875304,184.006323 184.602675,183.865261 C185.666377,183.659533 186.974874,183.139516 186.96821,181.8254 C186.957689,179.613987 187.430796,178.12899 185.056493,178.011048 C183.785522,177.948056 183.064814,178.160821 182.640455,178.486502 C182.271509,178.767954 182.127017,179.134513 182.041444,179.478287 C181.85662,180.217435 182.294656,183.932609 183.261913,184" id="Fill-99" fill="#FFB27D" mask="url(#mask-8)"></path>
                    <path d="M181.129789,177.453281 C180.696583,178.349071 181.41578,179.397914 182.283354,179.132556 C182.630733,179.026214 182.905087,178.900658 183.127944,178.922522 C183.62341,178.970227 183.950132,179.759676 184.037123,180.016751 C184.124404,180.27449 184.221577,180.482536 184.756901,180.096259 C184.845055,180.032653 184.916043,180.013439 184.973067,180.027353 C185.264877,180.094934 185.196798,181.008614 185.155776,181.216991 C185.155776,181.216991 185.19447,181.837485 185.57618,181.99617 C185.622148,182.015053 186.295667,182.075015 186.957258,179.062324 C187.061704,178.589583 187.008463,177.637805 186.41146,176.936147 C185.81533,176.235151 184.133132,175.872727 182.798895,176.040688 C181.975252,176.144711 181.453893,176.783426 181.129789,177.453281" id="Fill-100" fill="#66192D" mask="url(#mask-8)"></path>
                    <path d="M182,181.982025 C182,181.982025 182.036871,182.05059 182.560442,182.049996 C182.560442,182.049996 183,182.049572 183,181.975152 C183,181.975152 182.585199,181.914224 182,181.982025" id="Fill-101" fill="#FFFFFF" mask="url(#mask-8)"></path>
                    <path d="M187.122234,183.101403 C187.122234,183.101403 186.482922,186.864961 188.128475,192.538327 C189.774029,198.211395 191.5248,202 191.5248,202 C191.5248,202 196.136914,201.202383 197,198.854259 L192.452795,189.567316 C192.452795,189.567316 190.65964,190.611523 189.700228,183.18847 C189.700228,183.18847 188.65101,182.830362 187.122234,183.101403" id="Fill-102" fill="#FF8548" mask="url(#mask-8)"></path>
                    <path d="M183.388572,184 C183.388572,184 182.459995,184.499082 181.828159,185.229924 C181.150533,186.013188 181.005136,186.664631 181.005136,186.664631 C180.880256,191.031289 183.073992,201.434446 183.073992,201.434446 C184.417945,203.241624 187,202.987792 187,202.987792 C183.484314,193.283288 183.388572,184 183.388572,184" id="Fill-103" fill="#FF8548" mask="url(#mask-8)"></path>
                    <path d="M138,209 C138,209 136.480521,215.159161 135.972686,217.029439 C134.891842,221.010515 133.083846,222 133.083846,222 C133.082015,221.915361 133.079818,221.830418 133.077988,221.744865 C133.037712,219.880981 133.013913,217.286705 133,214.714958 L138,209 Z" id="Fill-104" fill="#FF443C" mask="url(#mask-8)"></path>
                    <path d="M393.771286,169.011011 C397.91488,168.742952 400.493721,173.426663 398.052322,176.785619 L359.06465,230.426113 L337.479595,260.125679 C337.479595,260.125679 70.8437263,264.342902 60.3054677,260.125679 C57.4544311,258.985905 54.9544705,256.071622 52.8270988,252.429366 C51.1135486,249.507613 49.640523,246.116083 48.4157903,242.79 C46.6344152,237.959857 45.3747243,233.272261 44.6683891,230.376207 C44.2240911,228.55478 44,226.688528 44,224.81331 L44,222.266899 C44,218.650642 46.7885899,215.646408 50.3943655,215.378051 L203.463542,203.985094 C209.45783,203.539225 215.143769,201.155681 219.665331,197.195161 L235.304202,183.493968 C238.687081,180.529779 242.954075,178.766029 247.442471,178.475856 L393.771286,169.011011 Z" id="Fill-105" fill="#FF8548" mask="url(#mask-8)"></path>
                    <path d="M360,231 L338.431689,260.159746 C338.431689,260.159746 72.0026519,264.300317 61.4728665,260.159746 C58.6240414,259.040689 56.1260201,256.179376 54,252.603322 C77.7776282,252.170546 113.386449,251.510672 149.659558,250.403937 C277.753685,246.500147 360,231 360,231" id="Fill-106" fill="#FF443C" mask="url(#mask-8)"></path>
                    <path d="M101.116351,235.757763 C100.328418,236.152755 99.4404736,236.374734 98.5008903,236.374734 C97.6417325,236.374734 96.8270907,236.189257 96.0916872,235.859553 C94.1935272,235.002202 92.8286683,233.163158 92.6479335,230.994112 C92.6313142,230.830892 92.6256755,230.666188 92.6256755,230.49911 C92.6256755,228.719121 93.4216207,227.122235 94.6763769,226.044983 C95.7046953,225.158847 97.0428446,224.625562 98.5008903,224.625562 C99.994252,224.625562 101.356737,225.183478 102.393365,226.106116 C103.399425,226.996111 104.095951,228.224416 104.307847,229.609115 C104.352363,229.900537 104.374918,230.197895 104.374918,230.49911 C104.374918,232.800512 103.046859,234.796545 101.116351,235.757763 M107.700853,228.132716 C107.222158,226.271117 106.193543,224.62942 104.79871,223.391322 C103.120162,221.904239 100.914545,221 98.5008903,221 C96.1388741,221 93.9753991,221.86566 92.3137671,223.295467 C90.3363687,224.995923 89.0652901,227.492893 89.0041548,230.28544 C89,230.356663 89,230.427886 89,230.49911 C89,234.356444 91.30741,237.682275 94.6152416,239.169062 C95.8026303,239.702643 97.1179282,240 98.5008903,240 C99.9310393,240 101.287292,239.682166 102.503171,239.11416 C105.747493,237.602743 108,234.309556 108,230.49911 C108,229.682416 107.896426,228.888276 107.700853,228.132716" id="Fill-107" fill="#552748" mask="url(#mask-8)"></path>
                    <path d="M91.8307958,230.485622 C91.8307958,230.658931 91.8370742,230.830391 91.85434,231 L88,230.26328 C88.064668,227.36173 89.4091979,224.767019 91.5008633,223 L94,225.856834 C92.6730498,226.976563 91.8307958,228.635957 91.8307958,230.485622" id="Fill-108" fill="#FFBA41" mask="url(#mask-8)"></path>
                    <path d="M108,228.575097 L104.16416,230 C103.924965,228.663867 103.137601,227.478356 102,226.619577 L104.719374,224 C106.296114,225.194674 107.458876,226.779077 108,228.575097" id="Fill-109" fill="#FFBA41" mask="url(#mask-8)"></path>
                    <path d="M102,238.955929 C100.766846,239.625393 99.391324,240 97.9411566,240 C96.5382445,240 95.204259,239.649528 94,239.020986 L95.4974228,235.119972 C96.2432748,235.508919 97.069491,235.727527 97.9411566,235.727527 C98.8937883,235.727527 99.7943489,235.465547 100.593476,235 L102,238.955929 Z" id="Fill-110" fill="#FFBA41" mask="url(#mask-8)"></path>
                    <path d="M71.1161614,237.757235 C70.3279446,238.152519 69.4400137,238.374791 68.5007419,238.374791 C67.6413008,238.374791 66.8266717,238.189317 66.0915765,237.859321 C64.1934461,237.001984 62.8289052,235.162968 62.6475798,232.993659 C62.6312575,232.830738 62.6253221,232.666037 62.6253221,232.498665 C62.6253221,230.718704 63.4215516,229.12214 64.6762882,228.044904 C65.7045905,227.159078 67.042719,226.625209 68.5007419,226.625209 C69.9940803,226.625209 71.3565437,227.183413 72.3931556,228.106333 C73.3989035,228.996314 74.0957156,230.224006 74.3076082,231.608684 C74.3524202,231.900398 74.3743811,232.197751 74.3743811,232.498665 C74.3743811,234.800328 73.0469363,236.79633 71.1161614,237.757235 M77.7005607,230.132604 C77.2218734,228.271035 76.1932743,226.62966 74.7981663,225.391285 C73.1199413,223.904522 70.9143589,223 68.5007419,223 C66.1387626,223 63.9753214,223.865646 62.3137154,225.295431 C60.3360511,226.996158 59.065289,229.492792 59.003858,232.285295 C59,232.356814 59,232.427739 59,232.498665 C59,236.356236 61.3073739,239.682015 64.6151539,241.168778 C65.8022273,241.702351 67.1180982,242 68.5007419,242 C69.9305718,242 71.2870999,241.682171 72.5029599,241.114174 C75.7472315,239.60278 78,236.309348 78,232.498665 C78,231.68228 77.8964278,230.888153 77.7005607,230.132604" id="Fill-111" fill="#552748" mask="url(#mask-8)"></path>
                    <path d="M62.8305954,232.485602 C62.8305954,232.659227 62.8371874,232.830693 62.8541383,233 L59,232.26356 C59.0649785,229.361898 60.4091242,226.767395 62.500994,225 L65,227.857253 C63.6731192,228.976716 62.8305954,230.635866 62.8305954,232.485602" id="Fill-112" fill="#FFBA41" mask="url(#mask-8)"></path>
                    <path d="M78,230.575315 L74.1641599,232 C73.9249651,230.663803 73.1372659,229.478809 72,228.619989 L74.7190383,226 C76.2961141,227.195017 77.4588762,228.77921 78,230.575315" id="Fill-113" fill="#FFBA41" mask="url(#mask-8)"></path>
                    <path d="M73,241.956075 C71.766846,242.625446 70.391023,243 68.9411566,243 C67.5385455,243 66.203958,242.649227 65,242.020774 L66.4974228,238.120305 C67.2429738,238.509547 68.06919,238.728125 68.9411566,238.728125 C69.8934873,238.728125 70.7940479,238.465832 71.5934761,238 L73,241.956075 Z" id="Fill-114" fill="#FFBA41" mask="url(#mask-8)"></path>
                    <path d="M290,74.771809 C290,74.771809 289.939994,77.1323725 283.769572,78.0893496 C281.500407,78.4409166 279.617546,78.6378537 278.085463,78.8279382 C275.448801,79.1553721 273.851937,79.4646319 273.124407,80.513374 C271.973554,82.1719953 267.818841,85.9760689 266.795761,86 C265.773278,86.023739 261,81.6044233 261,81.6044233 C261,81.6044233 265.198001,80.1945802 267.115492,76.2391541 C268.328142,73.7376659 277.1609,73.813938 283.489845,74.2075142 C287.167499,74.4357348 290,74.771809 290,74.771809" id="Fill-115" fill="#FECAFF" mask="url(#mask-8)"></path>
                    <path d="M262.67715,88.0005302 C260.96184,89.4925012 255.465083,91.3466336 253.45969,91.3008676 C252.258766,91.2727978 251.137843,92.2888026 249.494535,94.0791678 C249.492461,94.0813035 249.490979,94.082829 249.489201,94.0837444 C248.388724,95.2840335 247.052981,96.8315338 245.301817,98.6475279 C240.934576,103.175004 239,101.805381 239,101.805381 C239,101.805381 240.333669,99.3474423 242.239504,96.2451191 L242.2398,96.2445088 C245.611456,90.7574729 250.774573,83.2536828 253.522507,83.7601596 C257.824265,84.5531315 260.564198,82 260.564198,82 C260.564198,82 264.057636,86.7996309 262.67715,88.0005302" id="Fill-116" fill="#FECAFF" mask="url(#mask-8)"></path>
                    <path d="M257.285982,81.8844249 C257.285982,81.8844249 258.13032,84.5715441 259.657157,86.0969005 C261.183994,87.6225667 265.96769,88.9179262 266.400933,89.6479027 C266.834473,90.3778792 267.97266,92.999595 267.97266,92.999595 C267.97266,92.999595 271.703222,93.099095 273,90.1788792 C273,90.1788792 269.110848,87.7896399 268.541754,86.6945202 C267.97266,85.5990906 264.209908,81.4513985 260.637345,80.6213021 C260.637345,80.6213021 260.047283,80.2564689 259.646821,80.057159 C259.246358,79.858159 257.581013,80.1901356 257.159287,80.8760964 C256.737856,81.5614374 257.285982,81.8844249 257.285982,81.8844249" id="Fill-117" fill="#FECAFF" mask="url(#mask-8)"></path>
                    <path d="M256,81.3316435 C256,81.3316435 256.156826,81.0707743 256.645135,81.0218471 C257.1332,80.9726912 257.813022,81.0218471 257.813022,81.0218471 C257.813022,81.0218471 258.057299,81.2989491 257.987436,81.4459595 C257.917817,81.5929699 257.813022,82.1503748 257.429752,81.9612961 C257.045993,81.7722174 256,81.3316435 256,81.3316435" id="Fill-118" fill="#F99746" mask="url(#mask-8)"></path>
                    <path d="M249,94 C247.950847,95.2127127 246.677119,96.7769363 245.00791,98.611885 C240.84435,103.187694 239,101.803234 239,101.803234 C239,101.803234 240.271469,99.319532 242.088418,96.1839929 L242.088701,96.1833762 C242.088701,96.1833762 245.218927,97.9837905 249,94" id="Fill-119" fill="#66192D" mask="url(#mask-8)"></path>
                    <path d="M290,74.6106526 C290,74.6106526 289.939564,77.1651406 283.724881,78.2007351 C281.439439,78.5811839 279.543072,78.7942997 278,79 C282.767828,78.1820351 283.368579,74.8937323 283.443147,74 C287.147181,74.2469693 290,74.6106526 290,74.6106526" id="Fill-120" fill="#66192D" mask="url(#mask-8)"></path>
                    <path d="M106,73.5790881 C106,73.5790881 106.04528,75.3492401 110.726425,76.0672221 C112.447637,76.3306273 113.876002,76.4785751 115.038865,76.6213012 C117.039105,76.8667205 118.250481,77.0982153 118.802363,77.8852397 C119.675024,79.1291617 122.827248,81.9822337 123.603175,82 C124.379103,82.0176251 128,78.703304 128,78.703304 C128,78.703304 124.815434,77.6462024 123.3609,74.6794136 C122.440901,72.8033774 115.739816,72.8602357 110.938415,73.1558413 C108.148722,73.3269966 106,73.5790881 106,73.5790881" id="Fill-121" fill="#FECAFF" mask="url(#mask-8)"></path>
                    <path d="M125.255509,83.5001147 C126.613717,84.6192018 130.964856,86.0098169 132.55268,85.9756531 C133.503426,85.9545606 134.390829,86.7162648 135.69209,88.0596447 C135.693308,88.060833 135.694526,88.0617242 135.695744,88.0629125 C136.567312,88.9627572 137.624644,90.1237321 139.010869,91.4852337 C142.468514,94.881115 144,93.8541216 144,93.8541216 C144,93.8541216 142.944191,92.010762 141.435545,89.6834648 L141.434935,89.6831677 C138.765721,85.5677671 134.678306,79.93995 132.503042,80.3196138 C129.097472,80.914658 126.928297,79 126.928297,79 C126.928297,79 124.162851,82.5993788 125.255509,83.5001147" id="Fill-122" fill="#FECAFF" mask="url(#mask-8)"></path>
                    <path d="M129.76776,79.3044182 C129.76776,79.3044182 129.081492,81.1645186 127.841039,82.2209064 C126.600274,83.2770155 122.713499,84.173775 122.361487,84.6791251 C122.009475,85.1844751 121.084587,86.9997237 121.084587,86.9997237 C121.084587,86.9997237 118.053544,87.0682551 117,85.046855 C117,85.046855 120.159698,83.3926276 120.622298,82.6346025 C121.084587,81.8762989 124.141485,79.0046626 127.044494,78.4302239 C127.044494,78.4302239 127.523916,78.1775489 127.849449,78.0393716 C128.174983,77.90203 129.527582,78.1318612 129.870248,78.6062885 C130.213226,79.081273 129.76776,79.3044182 129.76776,79.3044182" id="Fill-123" fill="#FECAFF" mask="url(#mask-8)"></path>
                    <path d="M132,78.33182 C132,78.33182 131.842745,78.0706119 131.354813,78.0216354 C130.86688,77.9729557 130.186817,78.0216354 130.186817,78.0216354 C130.186817,78.0216354 129.943009,78.299169 130.012442,78.4460986 C130.082192,78.5930282 130.186817,79.1501732 130.570442,78.961391 C130.95375,78.7723119 132,78.33182 132,78.33182" id="Fill-124" fill="#F99746" mask="url(#mask-8)"></path>
                    <path d="M136,88 C136.839341,88.9093775 137.858227,90.0826516 139.193663,91.4588768 C142.524625,94.8904333 144,93.8525601 144,93.8525601 C144,93.8525601 142.982874,91.9896723 141.529502,89.6380203 L141.528916,89.6374199 C141.528916,89.6374199 139.024973,90.9878259 136,88" id="Fill-125" fill="#66192D" mask="url(#mask-8)"></path>
                    <path d="M105,73.3663988 C105,73.3663988 105.045085,74.8987946 109.706102,75.5203415 C111.419914,75.7483677 112.842138,75.876444 114,76 C110.423655,75.5090407 109.973099,73.5361627 109.917182,73 C107.139483,73.1481668 105,73.3663988 105,73.3663988" id="Fill-126" fill="#66192D" mask="url(#mask-8)"></path>
                    <path d="M328.999089,101.003218 C329.008808,101.473028 328.941384,101.880875 328.767358,102.18836 C327.642417,104.181924 324.324082,105.043872 323.536866,106.929219 C322.74965,108.814567 322.500607,110 322.500607,110 L319.206266,109.030127 L316,105.69026 C316,105.69026 319.599874,103.212051 321.2311,102.134543 C322.045346,101.596953 323.378329,99.5681897 324.509345,97.6717878 C325.643094,95.7698587 326.573965,94 326.573965,94 C326.573965,94 328.946851,98.4304649 328.999089,101.003218" id="Fill-127" fill="#FECAFF" mask="url(#mask-8)"></path>
                    <path d="M329,101 C327.640668,96.9937692 324.056822,97.6596328 324,97.6701005 C325.262599,95.7690454 326.299263,94 326.299263,94 C326.299263,94 328.941825,98.428429 329,101" id="Fill-128" fill="#66192D" mask="url(#mask-8)"></path>
                    <path d="M321,110.932193 C321,110.932193 312.31393,112.288098 311.322978,111.94409 C310.331728,111.600082 310.331728,107.729298 308.350121,105.063625 C308.114647,104.746556 307.863713,104.317398 307.60594,103.809901 C307.605346,103.808972 307.605346,103.808972 307.605346,103.808353 C305.695986,100.046871 303.411117,91.9724429 304.138351,93.1085045 C304.44072,93.581012 306.126796,94.7681638 308.195814,96.2392537 C311.777276,98.786645 316.506375,102.18647 317.18693,104.203451 C318.260536,107.38591 321,110.932193 321,110.932193" id="Fill-129" fill="#FECAFF" mask="url(#mask-8)"></path>
                    <path d="M307.296665,103 C305.021189,99.5198552 302.2982,92.0490604 303.164879,93.1004377 C303.525228,93.5376044 305.534251,94.6359642 308,95.9970251 C307.72717,96.3276216 305.750035,98.7440705 307.296665,103" id="Fill-130" fill="#66192D" mask="url(#mask-8)"></path>
                    <path d="M325.900152,111.270588 C325.900152,111.270588 325.601196,109.598763 323.656616,109.089157 C321.712036,108.579221 310.493447,110.434346 308.025466,110.180038 C305.557486,109.92507 303.271545,108.783327 303.105862,109.55814 C302.939876,110.332622 302.790246,112.575484 304.13661,112.77893 C305.482974,112.983037 306.697579,111.922871 307.379999,112.248847 C308.062722,112.575484 312.064255,114.573285 318.271766,113.839096 C324.479579,113.105236 326.49655,112.442715 325.900152,111.270588" id="Fill-131" fill="#FECAFF" mask="url(#mask-8)"></path>
                    <path d="M328,112 C328,112 327.674119,111.0759 327.183044,110.823707 C326.692235,110.571817 326.172788,110 326.172788,110 C326.172788,110 325.882703,111.056547 326.054261,111.430299 L328,112 Z" id="Fill-132" fill="#F99746" mask="url(#mask-8)"></path>
                    <path d="M271.99074,194.642901 C272.187716,198.503762 269.218329,201.793441 265.35724,201.990716 C261.496446,202.18799 258.206529,199.217666 258.009258,195.3571 C257.812282,191.496239 260.782259,188.206266 264.643053,188.009286 C268.503847,187.812012 271.793469,190.781746 271.99074,194.642901" id="Fill-133" fill="#552748" mask="url(#mask-8)"></path>
                    <path d="M316.990716,192.6429 C317.18799,196.504056 314.217671,199.793734 310.357113,199.990714 C306.495964,200.187988 303.206292,197.218254 303.009312,193.357394 C302.811743,189.496238 305.781767,186.20656 309.64262,186.009285 C313.503769,185.812011 316.793441,188.78204 316.990716,192.6429" id="Fill-134" fill="#552748" mask="url(#mask-8)"></path>
                    <path d="M357.990715,189.6429 C358.187989,193.503761 355.21796,196.793734 351.357099,196.990714 C347.495944,197.187988 344.20656,194.218254 344.009285,190.357099 C343.812011,186.496238 346.78204,183.206265 350.642901,183.009285 C354.504056,182.812011 357.79344,185.78204 357.990715,189.6429" id="Fill-135" fill="#552748" mask="url(#mask-8)"></path>
                    <path d="M176.15131,200.99814 C176.10841,201.032018 172.968991,200.597656 171.869855,200.133651 C171.170431,199.837825 169.865668,199.155732 168.482206,197.883801 C167.711183,197.174787 166.909982,196.297896 166.159669,195.244356 C165.500483,194.318766 165.637469,193.82542 165.251661,192.57678 C164.054002,188.702005 167.44313,188.444594 168.863575,189.610354 C169.845845,190.416465 170.289346,191.353247 170.576927,192.511445 C170.917763,193.882891 171.083151,195.332983 172.509218,197.04109 C173.583798,198.328447 176.99837,199.357789 176.99837,199.357789 C176.99837,199.357789 177.076478,200.263718 176.15131,200.99814" id="Fill-136" fill="#552748" mask="url(#mask-8)"></path>
                    <path d="M422,235.547015 C422,235.547015 412.082135,234.316231 402.516545,235.547015 C392.950955,236.778514 383,235.547015 383,235.547015 C383,235.547015 394.027398,240.989298 402.500146,239.840805 C410.973187,238.692312 412.925193,236.612502 422,235.547015" id="Fill-137" fill="#C1E1D3" opacity="0.664621262" mask="url(#mask-8)"></path>
                    <path d="M401,244.547346 C401,244.547346 391.082061,243.315818 381.516399,244.547346 C371.950444,245.778158 362,244.547346 362,244.547346 C362,244.547346 373.027188,249.989037 381.499707,248.840876 C389.973104,247.692356 391.925125,245.612141 401,244.547346" id="Fill-138" fill="#C1E1D3" opacity="0.664621262" mask="url(#mask-8)"></path>
                    <path d="M53,260.28021 C53,260.28021 55.3277022,256.678133 66.6610779,258.616249 C77.9947527,260.554365 95.4215567,261.459493 104.439795,260.28021 C113.457733,259.100927 143.898849,259.302529 166.764835,260.807111 C189.630224,262.31199 254.283265,254.789675 272.654193,258.043556 C291.025121,261.297438 337.829854,253.01629 349.16293,257.218118 C360.496007,261.420243 351.835256,266 351.835256,266 L56.5712773,266 L53,260.28021 Z" id="Fill-139" fill="#553E93" mask="url(#mask-8)"></path>
                    <path d="M448,252.547336 C448,252.547336 438.081917,251.315829 428.516691,252.547336 C418.95088,253.778843 409,252.547336 409,252.547336 C409,252.547336 420.027316,257.989295 428.5,256.840795 C436.972977,255.692652 438.924968,253.61283 448,252.547336" id="Fill-140" fill="#C1E1D3" opacity="0.664621262" mask="url(#mask-8)"></path>
                    <path d="M50,193.218913 C50,193.218913 47.4569341,192.726358 45.0043592,193.218913 C34.9896281,195.2309 51.6267324,195.464508 40,193.218913 C40,193.218913 42.8277666,195.395734 45.0001503,194.936313 C47.172534,194.477171 47.6733909,193.645201 50,193.218913" id="Fill-141" fill="#C8C1E1" mask="url(#mask-8)"></path>
                    <path d="M420,189.218763 C420,189.218763 414.405129,188.726547 409.009035,189.218763 C403.612942,189.711244 398,189.218763 398,189.218763 C398,189.218763 404.219995,191.395656 408.999847,190.936343 C413.779393,190.47703 414.880786,189.644907 420,189.218763" id="Fill-142" fill="#C8C1E1" mask="url(#mask-8)"></path>
                    <path d="M413,194.219001 C413,194.219001 407.405435,193.726249 402.009035,194.219001 C396.613248,194.711488 391,194.219001 391,194.219001 C391,194.219001 397.220301,196.395654 402.000153,195.936336 C406.779699,195.476752 407.880786,194.64462 413,194.219001" id="Fill-143" fill="#C8C1E1" mask="url(#mask-8)"></path>
                    <path d="M431,199.218874 C431,199.218874 425.405207,198.726407 420.008882,199.218874 C414.61317,199.711342 409,199.218874 409,199.218874 C409,199.218874 415.220214,201.395442 420,200.936407 C424.779479,200.476842 425.880551,199.644742 431,199.218874" id="Fill-144" fill="#C8C1E1" mask="url(#mask-8)"></path>
                    <path d="M400,291.547366 C400,291.547366 388.301777,290.315793 377.018978,291.547366 C365.736478,292.778939 354,291.547366 354,291.547366 C354,291.547366 367.006361,296.989136 376.999851,295.840844 C386.993639,294.692552 389.296105,292.612376 400,291.547366" id="Fill-145" fill="#C1E1D3" opacity="0.664621262" mask="url(#mask-8)"></path>
                    <path d="M242,268.547333 C242,268.547333 232.082119,267.315834 222.516299,268.547333 C214.082825,269.63333 214.681152,269.993059 203,268.547333 C203,268.547333 214.026816,273.989084 222.5,272.840861 C230.973184,271.692329 232.925229,269.612279 242,268.547333" id="Fill-146" fill="#C1E1D3" opacity="0.664621262" mask="url(#mask-8)"></path>
                    <path d="M263,280.547341 C263,280.547341 251.302076,279.315824 240.019277,280.547341 C228.736777,281.779167 217,280.547341 217,280.547341 C217,280.547341 230.006361,285.988861 240.000149,284.840932 C249.993639,283.692383 252.296404,281.612302 263,280.547341" id="Fill-147" fill="#C1E1D3" opacity="0.664621262" mask="url(#mask-8)"></path>
                    <path d="M174,195.228862 C174,195.228862 172.513931,194.800865 172.13272,195.11546 C171.75182,195.430231 172.266408,195.9764 172.723612,195.998126 C173.180816,196.020029 174,195.842684 174,195.842684 L174,195.228862 Z" id="Fill-148" fill="#FFB27D" mask="url(#mask-8)"></path>
                    <path d="M359,255.224306 C359,255.224306 356.556577,250.868296 340.987244,254.348026 C330.126851,256.774909 318.100586,250.658354 311,257.632077 C311,257.632077 317.360967,256.405799 333.189182,259.584594 C342.862933,261.527128 348.459296,256.073487 359,255.224306" id="Fill-149" fill="#C1E1D3" opacity="0.664621262" mask="url(#mask-8)"></path>
                    <path d="M177,199.228716 C177,199.228716 178.486069,198.800897 178.86728,199.115491 C179.24818,199.430085 178.733592,199.976429 178.276388,199.998155 C177.819184,200.019882 177,199.842536 177,199.842536 L177,199.228716 Z" id="Fill-150" fill="#FFB27D" mask="url(#mask-8)"></path>
                    <path d="M71,257.941371 C68.3019603,258.852628 54.1958858,269.188125 36.9049783,260.631735 C26.3057055,255.386539 39.9884944,256.767791 46.0267391,258.916647 C52.0646884,261.064879 71,257.941371 71,257.941371" id="Fill-151" fill="#C1E1D3" opacity="0.664621262" mask="url(#mask-8)"></path>
                    <path d="M51,259 C51,259 33.8566509,257.805967 30.5054487,253.47695 C27.1539502,249.148238 41.2036312,250.193435 51,259" id="Fill-152" fill="#C1E1D3" opacity="0.664621262" mask="url(#mask-8)"></path>
                    <path d="M195.645627,196 C195.645627,196 194.927822,196.320388 194.738043,196.581365 C194.547821,196.842341 193.842168,197.654857 194.032168,197.832129 C194.22239,198.0094 194.995869,198.098157 195.334998,197.832129 C195.674348,197.566101 196,196.457972 196,196.457972 L195.645627,196 Z" id="Fill-153" fill="#FFB27D" mask="url(#mask-8)"></path>
                    <path d="M188,183.004754 C188,183.004754 191.075931,182.806976 194.024968,184.962872 C196.973712,187.118768 198.263751,188.830894 197.955454,190.557146 C197.646865,192.283706 196.96199,195.385801 195.833132,196.997809 C195.833132,196.997809 195.036602,197.100997 194.701052,195.890993 C194.701052,195.890993 195.175805,191.159385 194.928171,190.632695 C194.466606,189.652407 191.013217,187.996175 190.268265,187.666649 C189.523899,187.336815 188,183.004754 188,183.004754" id="Fill-154" fill="#552748" mask="url(#mask-8)"></path>
                    <path d="M192,189 L187.371723,188.906553 C186.703648,185.316072 187.13997,183.100468 187.13997,183.100468 C188.892054,182.832509 190.096018,183.185366 190.096018,183.185366 C190.622051,186.696255 191.367265,188.291042 192,189" id="Fill-155" fill="#FF8548" mask="url(#mask-8)"></path>
                    <path d="M195,196 C195,196 194.337258,196.093333 194.239074,196.334524 C194.14089,196.575952 194,197 194,197 L194.306326,196.824524 L195,196 Z" id="Fill-156" fill="#FFB27D" mask="url(#mask-8)"></path>
                    <path d="M173.118657,195.020706 C173.118657,195.020706 172.870603,195.3287 173.091798,195.684597 C173.312641,196.04032 173.841049,196.061937 173.970605,195.913042 C174.099986,195.764319 173.77153,195.153519 173.582638,195.089706 C173.393569,195.026067 173.215736,194.967615 173.118657,195.020706" id="Fill-157" fill="#FFB27D" mask="url(#mask-8)"></path>
                    <path d="M166,202 L165.449751,205.702282 L165.449751,205.70449 L165.19137,207.451046 L164.054619,207.537175 L162.075442,207.688295 L158.003414,208 C158.000956,207.534967 158.000956,207.095173 158.000956,206.683773 C157.998805,205.455884 158.000956,204.504364 158.000956,204.011883 L158.000956,203.639289 L160.750358,203.076769 L163.445381,202.523083 L165.696457,202.062783 L166,202 Z" id="Fill-158" fill="#FF443C" mask="url(#mask-8)"></path>
                    <path d="M164,203.356376 L163.118751,205.626618 L162.411593,207.446318 L158.546577,207.7347 L155,208 C155.167677,207.050121 155.354599,206.100243 155.575932,205.208508 C155.829634,204.177111 156.12387,203.216422 156.47672,202.408543 C157.117098,200.935662 157.944691,199.97059 159.051648,200.000684 C160.317824,200.035162 161.272268,200.368832 161.990215,200.814991 C162.901209,201.381237 163.425817,202.126589 163.711888,202.66274 C163.924764,203.07004 164,203.356376 164,203.356376" id="Fill-159" fill="#FF443C" mask="url(#mask-8)"></path>
                    <path d="M165.637833,204.91733 C164.136026,205.116564 162.32391,205.012406 159.65715,203.967137 C157.095047,202.962737 155.742139,201.777551 156.040852,201.220434 C156.189447,200.942868 156.339566,200.657073 156.490296,200.356235 C157.138374,199.060647 157.791944,197.483804 158.34879,195.093849 C158.493723,194.473442 158.630722,193.809613 158.75216,193.232629 L158.752771,193.230926 L158.752466,193.230926 C158.900754,192.528215 159.025244,191.955205 159.111288,191.751714 C159.111288,191.751714 161.233712,188.552335 162.063337,188.195587 C162.35961,188.068157 162.748029,188.006003 163.193201,188.00061 C163.195032,188.000894 163.196252,188.00061 163.197473,188.000327 C165.305861,187.97677 168.697284,189.230071 169.763073,190.947967 C169.908311,191.182393 170.212517,192.575611 169.766734,193.83175 C169.146118,195.582568 166.612695,204.788197 165.637833,204.91733" id="Fill-160" fill="#4F1A44" mask="url(#mask-8)"></path>
                    <path d="M164.009347,187.830667 C163.919404,187.598119 164.500531,187.399094 164.810276,186.002871 C164.814164,185.984586 164.950762,186.055147 165.153198,186.171655 C165.755839,186.517898 166.945568,187.269927 166.997926,187.303684 C166.999482,187.303918 167,187.304387 167,187.304387 C167,187.304387 166.909021,187.58968 166.770349,188.109161 C166.757907,188.155108 166.745725,188.20293 166.732505,188.252628 C166.716435,188.313578 166.697254,188.37781 166.682739,188.444855 C166.454643,189.497179 164.429251,188.918858 164.009347,187.830667" id="Fill-161" fill="#FFB27D" mask="url(#mask-8)"></path>
                    <path d="M166.795664,188 C165.854705,187.892572 165,186.068957 165,186.068957 C165.119465,186.029035 165.23893,186.007017 165.35678,186 C165.892989,186.357609 166.951568,187.133801 166.998155,187.168401 C166.999539,187.168643 167,187.169127 167,187.169127 C167,187.169127 166.918819,187.463586 166.795664,188" id="Fill-162" fill="#ED975D" mask="url(#mask-8)"></path>
                    <path d="M168.738102,187 C168.738102,187 168.124709,187.006651 167.397335,186.865584 C166.333629,186.659848 165.025126,186.13981 165.03179,184.825643 C165.042311,182.613809 164.569202,181.129088 166.943515,181.011141 C168.21414,180.947812 168.935202,181.16092 169.359562,181.486279 C169.72851,181.768077 169.873003,182.13465 169.958576,182.478103 C170.143401,183.217615 169.705012,186.932934 168.738102,187" id="Fill-163" fill="#FFB27D" mask="url(#mask-8)"></path>
                    <path d="M169.870211,181.4533 C170.303416,182.348757 169.58422,183.397598 168.716647,183.132571 C168.368977,183.02623 168.094915,182.900342 167.872057,182.922207 C167.376592,182.969912 167.04987,183.759358 166.962589,184.016765 C166.875599,184.274834 166.778426,184.482548 166.242811,184.096272 C166.154948,184.032997 166.08396,184.01312 166.026936,184.027034 C165.735126,184.094947 165.803206,185.008624 165.843937,185.217001 C165.843937,185.217001 165.805533,185.837162 165.423533,185.996178 C165.377565,186.015061 164.704046,186.074692 164.042747,183.062008 C163.938301,182.589268 163.991542,181.637493 164.588254,180.935837 C165.184674,180.234843 166.866871,179.872751 168.201107,180.040712 C169.024749,180.144403 169.545817,180.783116 169.870211,181.4533" id="Fill-164" fill="#66192D" mask="url(#mask-8)"></path>
                    <path d="M168,185.982068 C168,185.982068 167.963129,186.05059 167.439558,186.049996 C167.439558,186.049996 167,186.049487 167,185.975114 C167,185.975114 167.414538,185.914224 168,185.982068" id="Fill-165" fill="#FFFFFF" mask="url(#mask-8)"></path>
                    <path d="M163.877791,188.101457 C163.877791,188.101457 164.517104,191.865005 162.87125,197.538056 C161.225989,203.211108 159.475213,207 159.475213,207 C159.475213,207 154.863088,206.202684 154,203.85397 L158.546623,194.567054 C158.546623,194.567054 160.340376,195.611557 161.29979,188.188226 C161.29979,188.188226 162.348715,187.830418 163.877791,188.101457" id="Fill-166" fill="#FF8548" mask="url(#mask-8)"></path>
                    <path d="M169.256801,198.258272 C169.171611,198.812105 169.081858,199.35905 168.989975,199.892219 C168.864321,200.637655 168.738666,201.353035 168.617575,202.010496 C168.213838,204.216748 167.877644,205.804673 167.877644,205.804673 C167.552402,206.240789 167.157792,206.559188 166.745232,206.789926 L165.125718,206.91453 L164,207 C164.203846,206.425504 164.39674,205.852887 164.576246,205.282774 C164.977854,204.020449 165.325305,202.774717 165.625598,201.567493 C165.650547,201.468561 165.675191,201.371507 165.700139,201.274453 C165.935323,200.300471 166.144037,199.354353 166.32324,198.442987 C166.500312,197.556667 166.650611,196.702907 166.778699,195.892664 L166.778699,195.890473 C167.39541,192.031802 167.523195,189.154001 167.550273,188.279264 C167.556662,188.094862 167.556662,188 167.556662,188 C167.556662,188 167.56153,188.002505 167.567919,188.007201 C167.574917,188.009392 167.58587,188.015967 167.599561,188.023481 C167.790325,188.131492 168.588672,188.600168 169.153661,189.255438 C169.781629,189.980523 169.960831,190.591649 169.98791,190.702478 C169.990039,190.70467 169.990039,190.707174 169.990039,190.709366 C169.994603,190.716254 169.994603,190.721263 169.994603,190.721263 C170.048455,192.571546 169.691876,195.484412 169.256801,198.258272" id="Fill-167" fill="#FF8548" mask="url(#mask-8)"></path>
                    <path d="M159,193 L163.628277,192.906285 C164.296352,189.305481 163.86003,187.083803 163.86003,187.083803 C162.362127,186.852618 160.644024,187.173084 160.644024,187.173084 C160.117651,190.693475 159.632735,192.289299 159,193" id="Fill-168" fill="#FF8548" mask="url(#mask-8)"></path>
                    <path d="M170.055301,201.17985 C170.055301,201.17985 171.023776,200.905456 171.401523,201.034523 C171.778704,201.16359 173.073312,201.463391 172.996741,201.836025 C172.920455,202.208659 172.174318,203.001353 171.637474,203 C171.100913,202.998304 170,202.020648 170,202.020648 L170.055301,201.17985 Z" id="Fill-169" fill="#FFB27D" mask="url(#mask-8)"></path>
                    <path d="M171,201.600607 C171,201.600607 171.89816,200.783114 172.20184,201.055612 C172.505521,201.327098 173,201.850859 173,201.850859 L172.485276,202 L171,201.600607 Z" id="Fill-170" fill="#FFB27D" mask="url(#mask-8)"></path>
                    <path d="M161.682128,187 C161.682128,187 159.133078,187.130353 158.225814,189.181114 C157.31855,191.231876 159.257593,198.058092 162.031413,199.547244 C164.805818,201.036692 170.533215,202 170.533215,202 L171,200.618736 C171,200.618736 164.354232,197.726151 163.852956,196.249709 C163.351389,194.772676 161.682128,187 161.682128,187" id="Fill-171" fill="#552748" mask="url(#mask-8)"></path>
                    <path d="M178.141953,199.015968 C178.141953,199.015968 178.588953,198.916964 178.868852,199.212001 C179.148998,199.506678 178.925868,199.939638 178.705948,199.995417 C178.48578,200.051016 177.981517,199.585773 178.000523,199.412697 C178.020022,199.239442 178.039768,199.077127 178.141953,199.015968" id="Fill-172" fill="#FFB27D" mask="url(#mask-8)"></path>
                </g>
            </g>
        </g>
    </g>
</svg>