<?xml version="1.0" encoding="UTF-8"?>
<svg width="472px" height="455px" viewBox="0 0 472 455" version="1.1" xmlns="http://www.w3.org/2000/svg" xmlns:xlink="http://www.w3.org/1999/xlink">
    <title>1D809BC8-DEE0-487D-95C9-BEC274FEFABE@1x</title>
    <defs>
        <linearGradient x1="100%" y1="3.49141817%" x2="0%" y2="96.5085818%" id="linearGradient-1">
            <stop stop-color="#32C5FF" offset="0%"></stop>
            <stop stop-color="#B620E0" offset="51.2583893%"></stop>
            <stop stop-color="#F7B500" offset="100%"></stop>
        </linearGradient>
        <path d="M275.347182,452.439599 C403,435.429759 435.162369,359.095739 468,234 C489,154 402.816901,154.058934 367.502117,113.078209 C324.590269,63.2815393 304.892697,0 234,0 C149.432622,0 160.549254,43.4840167 126.447422,62.8995236 C55.7376569,103.157358 0,146.821879 0,234 C0,314.5 69.8681687,303.993051 100.532258,380.798325 C131.196347,457.603599 201.994392,458 275.347182,452.439599 Z" id="path-2"></path>
        <path d="M405.006629,0 C458.8256,0 508,10.2485137 508,10.2485137 L508,225 L0,225 L0,10.2485137 C0,10.2485137 47.0480571,0 102.957086,0 C158.866114,0 203.787829,15.3162365 254.471714,15.3162365 C305.1556,15.3162365 351.187657,0 405.006629,0 Z" id="path-4"></path>
        <linearGradient x1="45.852606%" y1="57.1044393%" x2="19.8782485%" y2="47.1287966%" id="linearGradient-6">
            <stop stop-color="#00BD91" offset="0%"></stop>
            <stop stop-color="#009BA4" offset="100%"></stop>
        </linearGradient>
        <path d="M381.088914,0 C431.7296,0 478,8.60875155 478,8.60875155 L478,189 L0,189 L0,8.60875155 C0,8.60875155 44.2696286,0 96.8769429,0 C149.484257,0 191.753114,12.8656387 239.443857,12.8656387 C287.1346,12.8656387 330.448229,0 381.088914,0 Z" id="path-7"></path>
        <linearGradient x1="45.852606%" y1="55.6618715%" x2="19.8782485%" y2="47.711799%" id="linearGradient-9">
            <stop stop-color="#00BD91" offset="0%"></stop>
            <stop stop-color="#009BA4" offset="100%"></stop>
        </linearGradient>
        <path d="M177.874919,0 C177.702102,0.669446646 177.129554,1.17078113 176.430775,1.2458312 C165.729684,2.3850913 145.872332,7.75567449 138.596011,7.33989709 C131.145371,6.91511368 135.002933,5.23399205 135.130667,5.179956 C134.84815,5.24299806 116.752021,9.28519497 104.513616,9.28519497 C92.3894206,9.28519497 93.1227632,6.77852255 93.1513154,6.69296546 C92.9454385,6.74099751 75.4218582,10.8987715 59.503216,9.60941128 C43.7438654,8.33356005 49.6767267,4.96381179 49.8690788,4.85573969 C49.451314,4.92328475 14.2102984,10.6676173 3.13201746,7.01568077 C-6.4810812,3.84706671 8.69971021,1.40043435 13.0546828,0.788025761 L13.0561856,0.788025761 C39.1965406,2.72131563 63.8536804,5.31054313 90.1591878,5.31054313" id="path-10"></path>
    </defs>
    <g id="Page-1" stroke="none" stroke-width="1" fill="none" fill-rule="evenodd">
        <g id="Desktop-HD" transform="translate(-790.000000, -1132.000000)">
            <g id="project" transform="translate(200.000000, 1132.000000)">
                <g id="Group-5414" transform="translate(590.000000, 0.000000)">
                    <mask id="mask-3" fill="white">
                        <use xlink:href="#path-2"></use>
                    </mask>
                    <use id="Mask" fill="url(#linearGradient-1)" xlink:href="#path-2"></use>
                    <g mask="url(#mask-3)">
                        <g transform="translate(-9.000000, 85.000000)">
                            <polygon id="Fill-4" points="44 166 464 166 464 0 44 0"></polygon>
                            <g id="Group-5413" stroke-width="1" fill-rule="evenodd" transform="translate(0.000000, 13.241692)">
                                <path d="M89.9813897,22.855205 C83.2951993,19.1450296 71.2228485,18.0318869 63.9795883,25.6379116 C56.7361778,33.2437861 57.4791379,40.6641369 69.3655984,44.9310337 C81.2522092,49.1977804 96.48184,44.5599861 96.48184,44.5599861 C96.48184,44.5599861 99.8248601,53.4645271 116.911741,52.9079558 C133.998622,52.3513845 140.870552,44.1889386 140.870552,44.1889386 C140.870552,44.1889386 147.556743,51.0528681 159.257613,48.8267328 C170.958334,46.6005976 171.144074,41.2207082 171.144074,41.2207082 C171.144074,41.2207082 178.201744,44.9310337 186.187965,40.8498107 C194.174185,36.7684377 195.845845,26.1944829 183.402165,27.4929992 C183.402165,27.4929992 184.702195,13.7651402 166.872354,13.2085689 C149.042663,12.6521476 146.813783,20.8145935 146.813783,20.8145935 C146.813783,20.8145935 146.813783,14.8782829 143.285022,12.8376714 C139.756262,10.7970599 134.555842,11.3536313 134.555842,11.3536313 C134.555842,11.3536313 136.041612,-0.333616321 117.654701,1.15042381 C99.26764,2.63461405 102.98229,16.1767992 102.98229,16.1767992 C102.98229,16.1767992 98.5248301,15.7440605 94.3150232,18.0318869 C90.1052164,20.3198634 89.9813897,22.855205 89.9813897,22.855205" id="Fill-5163" fill="#005CA0"></path>
                                <path d="M89.9813897,22.855205 C83.2951993,19.1450296 71.2228485,18.032037 63.9795883,25.6379116 C56.7361778,33.2437861 57.4791379,40.664287 69.3655984,44.9310337 C81.2522092,49.1977804 96.48184,44.5599861 96.48184,44.5599861 C96.48184,44.5599861 99.8248601,53.464377 116.911741,52.9079558 C133.998622,52.3513845 140.870552,44.1889386 140.870552,44.1889386 C140.870552,44.1889386 147.556743,51.0528681 159.257613,48.8267328 C170.958334,46.6005976 171.144074,41.2207082 171.144074,41.2207082 L170.997556,38.6239757 C170.997556,38.6239757 166.139612,44.961504 154.341964,44.7635219 C142.544316,44.5653897 141.205966,39.119006 141.205966,39.119006 C141.205966,39.119006 129.309137,47.734304 113.694501,46.397362 C98.0800158,45.0605701 95.9981044,39.2676051 95.9981044,39.2676051 C85.7370195,44.4663236 60.9025552,40.4557979 65.0663778,30.9495054 C69.2302005,21.4432129 84.3986694,20.1062709 89.9813897,22.855205" id="Fill-5165" fill="#00347F"></path>
                                <path d="M105.66422,18.1753526 C111.61256,20.106391 115.330366,20.9975356 116.520094,24.7110131 C116.520094,24.7110131 117.189269,22.1115788 114.28941,20.3291396 C111.389552,18.5467004 105.66422,18.1753526 105.66422,18.1753526" id="Fill-5167" fill="#00276A"></path>
                                <path d="M116.985481,4.04695134 C135.372392,2.56276111 133.886622,14.2500087 133.886622,14.2500087 C133.886622,14.2500087 139.087042,13.6934374 142.615802,15.7340488 C146.144713,17.7748104 146.144713,23.7109709 146.144713,23.7109709 C146.144713,23.7109709 148.373443,15.548525 166.203134,16.1050964 C184.032975,16.6616677 182.732794,30.3895268 182.732794,30.3895268 C189.097095,29.7253336 191.767785,32.1671628 191.791228,35.2572745 C193.71009,31.0194971 191.680174,26.6290678 183.40212,27.4930443 C183.40212,27.4930443 184.70215,13.7651852 166.872309,13.2086139 C149.042618,12.6521926 146.813888,20.8144884 146.813888,20.8144884 C146.813888,20.8144884 146.813888,14.8781778 143.284977,12.8375663 C139.756217,10.7969549 134.555797,11.3535262 134.555797,11.3535262 C134.555797,11.3535262 136.041717,-0.333721391 117.654656,1.15046884 C105.831762,2.10480556 103.147398,8.0441182 102.737147,12.1634666 C104.092778,8.57832461 107.751827,4.79219856 116.985481,4.04695134" id="Fill-5169" fill="#1883D3"></path>
                                <path d="M254.908757,15.1325975 C248.697285,12.5613821 237.482254,11.7898673 230.753235,17.0610842 C224.024216,22.3323011 224.71443,27.4750323 235.756945,30.4320051 C246.799311,33.388978 260.947562,30.1748836 260.947562,30.1748836 C260.947562,30.1748836 264.053297,36.3461009 279.926707,35.9603436 C295.800417,35.5745862 302.184404,29.917762 302.184404,29.917762 C302.184404,29.917762 308.395725,34.6747358 319.265725,33.1320065 C330.135724,31.5891271 330.30809,27.8606395 330.30809,27.8606395 C330.30809,27.8606395 336.864593,30.4320051 344.283825,27.603518 C351.702907,24.775181 353.25585,17.4468416 341.695787,18.346842 C341.695787,18.346842 342.903548,8.83289446 326.339775,8.44713709 C309.776002,8.06152982 307.705662,13.718354 307.705662,13.718354 C307.705662,13.718354 307.705662,9.60425911 304.42741,8.19001554 C301.149159,6.77577197 296.318115,7.16152935 296.318115,7.16152935 C296.318115,7.16152935 297.698241,-0.938174675 280.61692,0.0903115183 C263.5356,1.11894781 266.986367,10.5042596 266.986367,10.5042596 C266.986367,10.5042596 262.845386,10.2043595 258.934627,11.7898673 C255.023717,13.3755252 254.908757,15.1325975 254.908757,15.1325975" id="Fill-5171" fill="#005CA0"></path>
                                <path d="M254.908757,15.1325975 C248.697285,12.561232 237.482254,11.7898673 230.753235,17.0612343 C224.024216,22.3323011 224.71443,27.4750323 235.756945,30.4320051 C246.799461,33.388978 260.947562,30.1748836 260.947562,30.1748836 C260.947562,30.1748836 264.053297,36.3461009 279.926707,35.9603436 C295.800417,35.5745862 302.184404,29.917762 302.184404,29.917762 C302.184404,29.917762 308.395725,34.6747358 319.265725,33.1318564 C330.135724,31.5891271 330.30809,27.8606395 330.30809,27.8606395 L330.172091,26.0609388 C330.172091,26.0609388 325.659179,30.4531692 314.699165,30.3159777 C303.73915,30.1786361 302.495924,26.4040677 302.495924,26.4040677 C302.495924,26.4040677 291.443791,32.3747513 276.938035,31.4483332 C262.43228,30.521765 260.498089,26.5070364 260.498089,26.5070364 C250.965838,30.1100403 227.894702,27.3306359 231.762934,20.7422903 C235.631015,14.1539446 249.722462,13.2275265 254.908757,15.1325975" id="Fill-5173" fill="#00347F"></path>
                                <path d="M269.477958,11.8893237 C275.003875,13.2276166 278.457798,13.8451286 279.562921,16.4187456 C279.562921,16.4187456 280.184609,14.6172437 277.490627,13.3819195 C274.796796,12.1465953 269.477958,11.8893237 269.477958,11.8893237" id="Fill-5175" fill="#00276A"></path>
                                <path d="M279.995307,2.09770583 C297.076628,1.06921963 295.696351,9.16892365 295.696351,9.16892365 C295.696351,9.16892365 300.527395,8.78316628 303.805647,10.1974098 C307.083898,11.6116534 307.083898,15.7257483 307.083898,15.7257483 C307.083898,15.7257483 309.154389,10.068774 325.718162,10.4545314 C342.281785,10.8402888 341.074024,20.3540863 341.074024,20.3540863 C346.986448,19.8938792 349.46749,21.5861082 349.489129,23.7277371 C351.271843,20.7907276 349.386041,17.7480475 341.695712,18.346797 C341.695712,18.346797 342.903473,8.83284943 326.3397,8.44724216 C309.776077,8.06148479 307.705587,13.7183089 307.705587,13.7183089 C307.705587,13.7183089 307.705587,9.60421408 304.427335,8.18997051 C301.149234,6.77587704 296.318039,7.16148432 296.318039,7.16148432 C296.318039,7.16148432 297.698316,-0.938219705 280.616996,0.0902664882 C269.633688,0.751757827 267.139723,4.8679541 266.758625,7.72285886 C268.018081,5.23825116 271.417304,2.61420043 279.995307,2.09770583" id="Fill-5177" fill="#1883D3"></path>
                                <path d="M299.589919,153.543694 C298.591942,161.327887 260.890923,168.127424 239.966617,163.648435 C215.730248,158.460974 195.78273,162.064879 200.798913,151.112071 C202.69839,146.964804 204.357578,144.181948 206.051028,141.759331 C208.826759,137.784679 211.691003,134.779675 215.850618,128.304354 C227.474247,110.209782 217.461417,96.2114423 207.507194,81.9459246 C201.314507,73.070503 198.302843,52.8144884 210.258731,38.7756219 C212.966688,35.5965008 216.442552,32.734091 220.823071,30.3970318 C222.447695,29.5294529 224.1984,28.7339222 226.079845,28.0209465 C228.978501,26.9237144 232.191533,26.0201116 235.740881,25.3536669 C236.593091,25.1930598 237.463184,25.0459616 238.354315,24.9138735 C240.16513,24.6436932 242.055591,24.430551 244.031709,24.2834529 L244.033061,24.2834529 C246.150588,24.1213447 248.367146,24.0327856 250.682735,24.0222786 C250.861562,24.0192766 251.04054,24.0192766 251.219217,24.0192766 C255.072421,24.0192766 258.591864,24.2504308 261.800088,24.6872223 C262.306515,24.7547673 262.805578,24.8283164 263.295325,24.9078695 C263.630438,24.9619055 263.962697,25.0174426 264.291649,25.0759816 C304.251453,32.1877265 292.163173,73.3797093 283.660758,90.9954623 C277.750438,103.239131 283.245848,140.737149 297.095202,149.815206 C298.987166,151.055033 299.749211,152.312873 299.589919,153.543694" id="Fill-5179" fill="#B46AC6"></path>
                                <path d="M253.924259,88.4482328 C253.924259,95.2227027 259.422375,100.714417 266.204741,100.714417 C272.986957,100.714417 278.485223,95.2227027 278.485223,88.4482328 C278.485223,81.673763 272.986957,76.182049 266.204741,76.182049 C259.422375,76.182049 253.924259,81.673763 253.924259,88.4482328" id="Fill-5181" fill="#FCE3A7"></path>
                                <path d="M272.15562,93.5816878 C272.15562,97.3717165 269.079489,100.444266 265.285042,100.444266 C261.490446,100.444266 258.414464,97.3717165 258.414464,93.5816878 C258.414464,89.7916591 261.490446,86.7191092 265.285042,86.7191092 C269.079489,86.7191092 272.15562,89.7916591 272.15562,93.5816878" id="Fill-5183" fill="#2F3D44"></path>
                                <path d="M254.46519,92.8251831 C254.897982,85.8004963 260.199838,86.6650731 267.989949,84.503631 C275.780211,82.3421889 279.458946,78.3435211 279.458946,78.3435211 C279.458946,78.3435211 273.183457,71.8591948 263.770224,74.4529253 C254.356991,77.0466558 251.219247,79.9646026 251.543841,85.47628 C251.868436,90.9879573 254.46519,92.8251831 254.46519,92.8251831" id="Fill-5185" fill="#B46AC6"></path>
                                <path d="M206.051073,141.759376 C208.826654,137.784725 211.690898,134.77972 215.850513,128.304399 C227.474292,110.209827 217.461462,96.2114874 207.507239,81.9459696 C201.314402,73.070548 198.302888,52.8145335 210.258776,38.7755168 C199.175987,62.8172071 204.928518,67.5903917 222.943498,101.470996 C228.374591,111.685161 224.751307,142.730524 206.051073,141.759376" id="Fill-5187" fill="#9729B2"></path>
                                <path d="M231.369498,144.175929 C229.22357,148.702949 223.71749,157.836543 212.159681,164.080709 C206.051148,167.37991 197.168386,169.674941 187.474139,170.470472 C171.925174,171.746323 154.293395,169.164601 142.696665,160.676438 C123.8702,146.897244 115.268453,126.957941 123.383308,104.424907 C130.775341,83.8987124 159.985666,73.4607484 164.391883,61.3476667 C164.824675,60.1648775 165.01853,58.9640764 164.93137,57.7377582 C163.957588,43.9585649 148.539362,28.7203982 130.686679,34.7183999 C120.421386,38.1677013 119.45662,49.6203423 120.491865,58.7314211 C120.676854,60.3600077 119.262765,61.3386607 117.977763,61.1690475 C117.316702,61.0819894 116.690055,60.690228 116.3324,59.9262183 C111.086296,48.7227435 107.446633,29.7936142 131.985056,23.0466127 C170.503571,12.4555464 190.628414,54.2794508 176.77891,72.4355644 C162.929706,90.5916779 137.827752,97.940581 145.185221,121.716444 C149.14497,134.512481 167.146425,142.050511 184.214522,144.465622 C198.091076,146.431934 211.351351,145.013487 215.946764,140.283832 C216.432153,139.783998 217.115904,139.528828 217.80717,139.614385 L229.653357,141.070357 C231.133566,141.253479 232.008168,142.828179 231.369498,144.175929" id="Fill-5189" fill="#B46AC6"></path>
                                <path d="M400.53267,79.9886187 C400.53267,79.9901197 400.531017,79.9931217 400.531017,79.9946227 C400.491945,80.2708069 399.028266,89.9537673 388.373911,88.0114714 C377.566125,86.0406565 372.763332,73.2326111 373.66348,66.0548222 C374.563478,58.8770333 362.105822,50.1502109 350.847211,57.3279998 C349.206207,58.3741978 347.775588,59.66656 346.553851,61.1600565 C339.390236,69.9123959 339.376712,85.6068671 346.044268,99.5526716 C353.849707,115.880565 362.406372,136.992151 357.002479,158.24483 C353.924845,170.351908 332.095883,174.054728 311.768019,173.047556 C296.4084,172.289701 281.905499,168.8419 276.996012,164.298219 C265.587125,153.741826 293.200177,147.545692 293.200177,147.545692 C293.795266,147.991489 294.418908,148.401263 295.066593,148.776513 C309.706394,157.243512 337.150987,147.79786 331.784813,125.872732 C326.179552,102.977957 310.469792,68.1652303 335.687308,51.8388375 C360.905124,35.5124447 384.921941,48.4615842 383.120293,65.6330408 C381.318494,82.8044974 395.429327,89.5605049 400.53267,79.9886187" id="Fill-5191" fill="#B46AC6"></path>
                                <path d="M357.002494,158.244875 C353.92486,170.351803 332.095898,174.054773 311.768034,173.047601 L315.488996,164.729051 C315.488996,164.729051 350.11223,164.729051 353.791115,146.789232 C357.469699,128.849263 342.213921,110.693149 338.967828,92.5370358 C336.124623,76.6339255 337.752103,69.8253829 346.553866,61.1601015 C339.390252,69.912441 339.376727,85.606762 346.044283,99.5525665 C353.849722,115.88061 362.406387,136.992046 357.002494,158.244875" id="Fill-5193" fill="#9729B2"></path>
                                <path d="M230.878024,175.320238 C211.835162,185.262871 206.641654,200.825254 214.431916,215.523061 C222.222177,230.220867 245.592962,226.330271 247.324131,248.809269 C249.055301,271.288116 232.609193,279.069458 232.609193,279.069458 C232.609193,279.069458 252.950431,275.178862 257.711147,253.99673 C262.471862,232.814597 249.055301,226.762559 243.429001,215.523061 C237.802701,204.283562 266.367143,175.320238 266.367143,175.320238 L230.878024,175.320238 Z" id="Fill-5195" fill="#B46AC6"></path>
                                <path d="M317.509489,168.966333 C348.813898,168.619602 398.152372,177.697809 411.78518,215.306751 C425.418137,252.915994 360.499291,249.025398 338.426883,275.611136 C338.426883,275.611136 343.944985,257.455022 360.823885,250.970696 C377.702935,244.48637 398.152372,237.029394 387.440612,218.549064 C376.729002,200.068735 308.564364,184.182135 297.203415,173.482997 C285.842617,162.783859 317.509489,168.966333 317.509489,168.966333" id="Fill-5197" fill="#B46AC6"></path>
                                <path d="M301.964236,175.320238 C321.007098,185.262871 328.052896,202.117016 321.331692,217.03607 C315.488996,230.004572 295.580549,226.762559 293.84938,249.241407 C292.11806,271.720555 300.232916,279.069458 300.232916,279.069458 C300.232916,279.069458 287.140949,274.314285 282.380384,253.132003 C277.619668,231.95002 291.468872,224.168679 297.095322,212.92933 C302.721622,201.689831 266.475266,175.320238 266.475266,175.320238 L301.964236,175.320238 Z" id="Fill-5199" fill="#B46AC6"></path>
                                <path d="M303.080885,151.516906 C301.804899,151.317573 300.557015,151.028781 299.354513,150.648577 C298.559558,150.397159 297.784439,150.105965 297.034115,149.773944 C283.229844,140.62549 277.759079,103.220984 283.660833,90.9954773 C292.233878,73.2341272 304.449741,31.5092889 263.2954,24.9078845 C276.557178,29.1752316 286.945696,36.3335075 289.08862,51.9018946 C291.468977,69.1934313 279.350793,84.5396701 278.052416,104.208793 C276.754039,123.877916 286.841406,149.158383 296.878881,153.057384 C297.651896,153.357735 298.486073,153.631217 299.370442,153.87528 C300.296287,154.131051 301.277133,154.3544 302.300506,154.542625 L303.080885,151.516906 Z" id="Fill-5201" fill="#9729B2"></path>
                                <path d="M302.936035,154.65421 C314.037308,156.507796 329.672682,154.28016 334.531827,144.303454 C340.374523,132.3076 333.882639,118.474221 326.957962,96.8597999 C320.033135,75.245379 328.039943,54.7118293 344.269654,49.3082241 C360.499366,43.9046189 374.619215,48.173467 378.83894,55.1441177 C383.058665,62.1146184 377.70286,76.8664606 386.629202,82.7025043 C395.548029,88.5337449 399.80382,82.364779 400.531002,79.9946977 C400.531002,79.9930466 400.532655,79.9900446 400.532655,79.9886937 C395.429312,89.56058 381.318479,82.8044223 383.120278,65.6329658 C384.921926,48.4615092 360.905109,35.5123697 335.687293,51.8387624 C310.469777,68.1653053 326.179537,102.978032 331.784798,125.872657 C336.22107,143.99785 318.234492,153.594052 303.595442,151.592317 L302.936035,154.65421 Z" id="Fill-5203" fill="#FFFFFF"></path>
                                <path d="M184.214597,144.465562 C181.619346,147.502088 178.740075,148.907175 175.9134,148.950554 C161.84765,149.166698 136.962092,131.442873 139.558846,112.854471 C142.1556,94.2662195 160.224679,84.6476521 171.910071,73.3000812 C183.595464,61.9525102 180.349521,43.147964 167.690346,32.4488257 C155.031171,21.7496874 137.178488,21.7496874 124.843907,27.9097973 C112.970671,33.8402541 112.225307,48.7828736 117.977838,61.1691375 C117.316627,61.0819294 116.68998,60.690168 116.332325,59.9261582 C111.086221,48.7226834 107.446558,29.7935542 131.98498,23.0467027 C170.503496,12.4556365 190.628339,54.2793908 176.778985,72.4355043 C162.929631,90.591768 137.827677,97.9406711 145.185146,121.716384 C149.144895,134.512421 167.14635,142.050451 184.214597,144.465562" id="Fill-5205" fill="#FFFFFF"></path>
                                <path d="M188.897184,168.835881 C160.332892,171.8619 136.096522,176.617073 111.427361,199.096071 C86.758199,221.575068 99.7419683,250.106104 137.394899,255.293565 C175.04783,260.481026 184.731558,256.968683 195.443168,263.939333 C204.372215,269.75001 209.725314,278.853284 209.725314,278.853284 C209.725314,278.853284 206.641669,250.970681 177.644584,247.080085 C148.647499,243.189489 121.814376,226.330241 143.453992,213.361588 C165.093607,200.392936 183.703677,204.71582 211.402385,195.205475 C239.101093,185.69513 243.861808,170.565035 243.861808,170.565035 L188.897184,168.835881 Z" id="Fill-5207" fill="#B46AC6"></path>
                                <path d="M187.474124,170.470412 C171.925159,171.746263 154.29338,169.164691 142.69665,160.676378 C123.870185,146.897184 115.268438,126.957881 123.383293,104.424847 C130.775326,83.8986524 159.985801,73.4606883 164.391868,61.3476066 C163.072452,67.4596845 159.392215,72.2735463 146.267187,82.3781379 C130.686664,94.3741415 116.861354,116.018582 129.616705,140.698048 C142.372056,165.377514 184.077907,162.155014 184.077907,162.155014 L187.474124,170.470412 Z" id="Fill-5209" fill="#9729B2"></path>
                                <g id="Group-14" opacity="0.526615688" transform="translate(0.000000, 133.758308)">
                                    <mask id="mask-5" fill="white">
                                        <use xlink:href="#path-4"></use>
                                    </mask>
                                    <g id="Clip-13"></g>
                                    <path d="M508,225 L0,225 L0,10.2485137 C0,10.2485137 47.0480571,0 102.957086,0 C158.866114,0 203.787829,15.3162365 254.471714,15.3162365 C305.1556,15.3162365 351.187657,0 405.006629,0 C458.8256,0 508,10.2485137 508,10.2485137 L508,225 Z" id="Fill-12" fill="url(#linearGradient-6)" mask="url(#mask-5)"></path>
                                </g>
                                <polygon id="Fill-5211" fill="#1E272B" points="328.208236 137.215635 328.68566 137.215635 328.68566 131.421769 328.208236 131.421769"></polygon>
                                <polygon id="Fill-5213" fill="#1E272B" points="273.562496 137.395905 274.03992 137.395905 274.03992 130.131658 273.562496 130.131658"></polygon>
                                <polygon id="Fill-5214" fill="#1E272B" points="283.796216 102.453282 283.422331 92.5774428 283.899304 92.5594308 284.273339 102.43512"></polygon>
                                <path d="M235.141854,139.510951 L237.028258,143.984836 L260.978053,113.634887 L235.141854,139.510951 Z M236.902327,144.914707 L234.577571,139.401078 L234.690729,139.287752 L260.937929,112.999813 L234.34209,133.48353 L234.050707,133.105878 L263.552716,110.383868 L263.765956,110.625829 L263.885876,110.720242 L236.902327,144.914707 Z" id="Fill-5215" fill="#1E272B"></path>
                                <polygon id="Fill-5216" fill="#1E272B" points="238.693862 147.638784 274.925191 90.995042 283.660683 90.995042 284.17808 93.2444428 276.357162 93.7127552 244.422199 157.937605"></polygon>
                                <polygon id="Fill-5217" fill="#1E272B" points="313.738381 130.619124 329.486761 130.799244 328.913913 131.562803 313.738381 133.294659"></polygon>
                                <polygon id="Fill-5218" fill="#1E272B" points="299.310948 160.701444 310.492168 130.619124 313.738411 130.619124 322.034198 160.701444 319.870086 161.602045 312.115289 132.510536 300.93407 161.602045"></polygon>
                                <polygon id="Fill-5219" fill="#1E272B" points="288.219488 130.718145 272.51589 129.517344 273.019612 130.328185 287.984458 133.383323"></polygon>
                                <polygon id="Fill-5220" fill="#1E272B" points="299.948731 161.948867 291.453228 131.00272 288.219458 130.71813 277.313092 159.957338 279.389744 161.044213 289.670214 132.744632 298.252726 162.70372"></polygon>
                                <polygon id="Fill-5221" fill="#1E272B" points="182.321251 111.058838 232.366168 111.058838 232.366168 109.151516 185.312928 108.19793"></polygon>
                                <polygon id="Fill-5222" fill="#B6BF7F" points="195.893122 134.795915 185.556749 111.058778 230.162759 111.058778 232.366243 136.235076"></polygon>
                                <polygon id="Fill-5223" fill="#1E272B" points="166.759632 132.484238 166.21774 131.562773 166.21774 128.303949 166.759632 128.303949"></polygon>
                                <polygon id="Fill-5224" fill="#1E272B" points="169.965241 133.294569 170.507133 133.294569 170.507133 128.303889 169.965241 128.303889"></polygon>
                                <polygon id="Fill-5225" fill="#1E272B" points="173.712952 133.294569 174.254693 133.294569 174.254693 128.303889 173.712952 128.303889"></polygon>
                                <polygon id="Fill-5226" fill="#1E272B" points="177.460512 133.294569 178.002404 133.294569 178.002404 128.303889 177.460512 128.303889"></polygon>
                                <polygon id="Fill-5227" fill="#1E272B" points="181.208073 133.294569 181.749965 133.294569 181.749965 128.303889 181.208073 128.303889"></polygon>
                                <polygon id="Fill-5228" fill="#1E272B" points="184.955784 133.294569 185.497676 133.294569 185.497676 128.303889 184.955784 128.303889"></polygon>
                                <polygon id="Fill-5229" fill="#1E272B" points="188.703345 133.294569 189.245237 133.294569 189.245237 128.303889 188.703345 128.303889"></polygon>
                                <polygon id="Fill-5230" fill="#1E272B" points="192.451055 133.294569 192.992797 133.294569 192.992797 128.303889 192.451055 128.303889"></polygon>
                                <polygon id="Fill-5231" fill="#1E272B" points="196.198616 133.294569 196.740508 133.294569 196.740508 128.303889 196.198616 128.303889"></polygon>
                                <polygon id="Fill-5232" fill="#1E272B" points="199.946177 133.294569 200.488069 133.294569 200.488069 128.303889 199.946177 128.303889"></polygon>
                                <polygon id="Fill-5233" fill="#1E272B" points="203.693737 133.294569 204.235629 133.294569 204.235629 128.303889 203.693737 128.303889"></polygon>
                                <polygon id="Fill-5234" fill="#1E272B" points="207.441298 133.294569 207.98319 133.294569 207.98319 128.303889 207.441298 128.303889"></polygon>
                                <polygon id="Fill-5235" fill="#1E272B" points="212.103132 132.484178 212.645025 132.484178 212.645025 128.303889 212.103132 128.303889"></polygon>
                                <polygon id="Fill-5236" fill="#1E272B" points="215.850693 133.294569 216.392585 133.294569 216.392585 128.303889 215.850693 128.303889"></polygon>
                                <polygon id="Fill-5237" fill="#1E272B" points="219.598404 133.294569 220.140296 133.294569 220.140296 128.303889 219.598404 128.303889"></polygon>
                                <polygon id="Fill-5238" fill="#1E272B" points="223.345965 133.294569 223.887857 133.294569 223.887857 128.303889 223.345965 128.303889"></polygon>
                                <polygon id="Fill-5239" fill="#1E272B" points="227.093676 133.294569 227.635417 133.294569 227.635417 128.303889 227.093676 128.303889"></polygon>
                                <polygon id="Fill-5240" fill="#1E272B" points="230.841236 133.294569 231.383128 133.294569 231.383128 128.303889 230.841236 128.303889"></polygon>
                                <polygon id="Fill-5241" fill="#1E272B" points="234.588797 133.294569 235.130689 133.294569 235.130689 128.303889 234.588797 128.303889"></polygon>
                                <polygon id="Fill-5242" fill="#1E272B" points="166.21768 128.796668 235.130689 128.796668 235.130689 128.304039 166.21768 128.304039"></polygon>
                                <path d="M166.21768,131.562743 L180.371942,174.292202 C182.198085,179.80493 187.365295,183.520359 193.178688,183.500773 L329.833461,183.038687 C337.239469,183.013621 343.229735,177.009915 343.229735,169.61283 L326.235123,157.024531 L245.080704,155.68939 L234.960277,132.51648 L166.21768,131.562743 Z" id="Fill-5243" fill="#242B7F"></path>
                                <polygon id="Fill-5244" fill="#2F3D44" points="186.408554 113.014748 197.581508 113.014748 200.217183 124.552796 191.432851 124.552796"></polygon>
                                <polygon id="Fill-5245" fill="#2F3D44" points="199.930593 113.014748 202.546132 124.552796 210.613801 124.552796 209.993315 113.014748"></polygon>
                                <polygon id="Fill-5246" fill="#2F3D44" points="212.103178 113.014748 212.64507 124.552796 221.498227 124.552796 221.498227 113.014748"></polygon>
                                <polygon id="Fill-5247" fill="#1E272B" points="196.638111 114.063768 199.033947 124.552766 200.228484 124.552766 197.592959 113.014718 186.419854 113.014718 186.87654 114.063768"></polygon>
                                <polygon id="Fill-5248" fill="#1E272B" points="210.004601 113.014748 199.942029 113.014748 200.179764 114.063798 209.049753 114.063798 209.614036 124.552796 210.625237 124.552796"></polygon>
                                <polygon id="Fill-5249" fill="#1E272B" points="212.114538 113.014748 212.163829 114.063798 220.55474 114.063798 220.55474 124.552796 221.509588 124.552796 221.509588 113.014748"></polygon>
                                <path d="M181.482055,141.421936 C181.482055,143.094202 180.12492,144.449756 178.450855,144.449756 C176.776791,144.449756 175.419806,143.094202 175.419806,141.421936 C175.419806,139.749821 176.776791,138.394416 178.450855,138.394416 C180.12492,138.394416 181.482055,139.749821 181.482055,141.421936" id="Fill-5250" fill="#2F3D44"></path>
                                <path d="M178.45087,138.667223 C176.930086,138.667223 175.692721,139.902998 175.692721,141.422161 C175.692721,142.941175 176.930086,144.176949 178.45087,144.176949 C179.971805,144.176949 181.20902,142.941175 181.20902,141.422161 C181.20902,139.902998 179.971805,138.667223 178.45087,138.667223 M178.45087,144.722563 C176.628785,144.722563 175.146621,143.241976 175.146621,141.422161 C175.146621,139.602197 176.628785,138.121609 178.45087,138.121609 C180.272806,138.121609 181.755119,139.602197 181.755119,141.422161 C181.755119,143.241976 180.272806,144.722563 178.45087,144.722563" id="Fill-5251" fill="#1E272B"></path>
                                <path d="M178.153251,139.468878 C177.831361,139.378818 177.177364,139.775983 176.92956,140.089542 C176.609925,140.346514 176.385414,140.677334 176.469568,141.162908 C176.517656,141.440894 176.706702,141.833106 177.046024,141.751751 C177.420659,141.661991 177.359047,141.129436 177.438993,140.889876 C177.600839,140.405203 178.933779,139.687124 178.153251,139.468878" id="Fill-5252" fill="#FFFFFF"></path>
                                <path d="M194.306938,141.421936 C194.306938,143.094202 192.949804,144.449756 191.275739,144.449756 C189.601674,144.449756 188.24454,143.094202 188.24454,141.421936 C188.24454,139.749821 189.601674,138.394416 191.275739,138.394416 C192.949804,138.394416 194.306938,139.749821 194.306938,141.421936" id="Fill-5253" fill="#2F3D44"></path>
                                <path d="M191.275754,138.667223 C189.75497,138.667223 188.517605,139.902998 188.517605,141.422161 C188.517605,142.941175 189.75497,144.176949 191.275754,144.176949 C192.796538,144.176949 194.033903,142.941175 194.033903,141.422161 C194.033903,139.902998 192.796538,138.667223 191.275754,138.667223 M191.275754,144.722563 C189.453818,144.722563 187.971505,143.241976 187.971505,141.422161 C187.971505,139.602197 189.453818,138.121609 191.275754,138.121609 C193.09784,138.121609 194.580003,139.602197 194.580003,141.422161 C194.580003,143.241976 193.09784,144.722563 191.275754,144.722563" id="Fill-5254" fill="#1E272B"></path>
                                <path d="M190.978224,139.468878 C190.656335,139.378818 190.002187,139.775983 189.754384,140.089542 C189.434899,140.346514 189.210388,140.677334 189.294542,141.162908 C189.34263,141.440894 189.531526,141.833106 189.870997,141.751751 C190.245483,141.661991 190.18402,141.129436 190.263967,140.889876 C190.425813,140.405203 191.758753,139.687124 190.978224,139.468878" id="Fill-5255" fill="#FFFFFF"></path>
                                <path d="M207.131837,141.421936 C207.131837,143.094202 205.774852,144.449756 204.100637,144.449756 C202.426573,144.449756 201.069438,143.094202 201.069438,141.421936 C201.069438,139.749821 202.426573,138.394416 204.100637,138.394416 C205.774852,138.394416 207.131837,139.749821 207.131837,141.421936" id="Fill-5256" fill="#2F3D44"></path>
                                <path d="M204.100652,138.667223 C202.579868,138.667223 201.342653,139.902998 201.342653,141.422161 C201.342653,142.941175 202.579868,144.176949 204.100652,144.176949 C205.621436,144.176949 206.858802,142.941175 206.858802,141.422161 C206.858802,139.902998 205.621436,138.667223 204.100652,138.667223 M204.100652,144.722563 C202.278717,144.722563 200.796403,143.241976 200.796403,141.422161 C200.796403,139.602197 202.278717,138.121609 204.100652,138.121609 C205.922738,138.121609 207.404901,139.602197 207.404901,141.422161 C207.404901,143.241976 205.922738,144.722563 204.100652,144.722563" id="Fill-5257" fill="#1E272B"></path>
                                <path d="M203.803108,139.468878 C203.481068,139.378818 202.827071,139.775983 202.579267,140.089542 C202.259782,140.346514 202.035271,140.677334 202.119275,141.162908 C202.167513,141.440894 202.356409,141.833106 202.69573,141.751751 C203.070366,141.661991 203.008753,141.129436 203.08885,140.889876 C203.250696,140.405203 204.583637,139.687124 203.803108,139.468878" id="Fill-5258" fill="#FFFFFF"></path>
                                <path d="M219.956735,141.421936 C219.956735,143.094202 218.599601,144.449756 216.925686,144.449756 C215.251471,144.449756 213.894337,143.094202 213.894337,141.421936 C213.894337,139.749821 215.251471,138.394416 216.925686,138.394416 C218.599601,138.394416 219.956735,139.749821 219.956735,141.421936" id="Fill-5259" fill="#2F3D44"></path>
                                <path d="M216.925626,138.667223 C215.404692,138.667223 214.167477,139.902998 214.167477,141.422161 C214.167477,142.941175 215.404692,144.176949 216.925626,144.176949 C218.44641,144.176949 219.683775,142.941175 219.683775,141.422161 C219.683775,139.902998 218.44641,138.667223 216.925626,138.667223 M216.925626,144.722563 C215.10354,144.722563 213.621377,143.241976 213.621377,141.422161 C213.621377,139.602197 215.10354,138.121609 216.925626,138.121609 C218.747561,138.121609 220.229875,139.602197 220.229875,141.422161 C220.229875,143.241976 218.747561,144.722563 216.925626,144.722563" id="Fill-5260" fill="#1E272B"></path>
                                <path d="M216.628006,139.468878 C216.306117,139.378818 215.651969,139.775983 215.404166,140.089542 C215.084681,140.346514 214.86017,140.677334 214.944174,141.162908 C214.992412,141.440894 215.181308,141.833106 215.520779,141.751751 C215.895265,141.661991 215.833802,141.129436 215.913749,140.889876 C216.075595,140.405203 217.408535,139.687124 216.628006,139.468878" id="Fill-5261" fill="#FFFFFF"></path>
                                <path d="M232.781634,141.421936 C232.781634,143.094202 231.424649,144.449756 229.750585,144.449756 C228.07637,144.449756 226.719235,143.094202 226.719235,141.421936 C226.719235,139.749821 228.07637,138.394416 229.750585,138.394416 C231.424649,138.394416 232.781634,139.749821 232.781634,141.421936" id="Fill-5262" fill="#2F3D44"></path>
                                <path d="M229.750524,138.667223 C228.22974,138.667223 226.992375,139.902998 226.992375,141.422161 C226.992375,142.941175 228.22974,144.176949 229.750524,144.176949 C231.271309,144.176949 232.508674,142.941175 232.508674,141.422161 C232.508674,139.902998 231.271309,138.667223 229.750524,138.667223 M229.750524,144.722563 C227.928439,144.722563 226.446275,143.241976 226.446275,141.422161 C226.446275,139.602197 227.928439,138.121609 229.750524,138.121609 C231.57246,138.121609 233.054774,139.602197 233.054774,141.422161 C233.054774,143.241976 231.57246,144.722563 229.750524,144.722563" id="Fill-5263" fill="#1E272B"></path>
                                <path d="M229.452905,139.468878 C229.131015,139.378818 228.476868,139.775983 228.229064,140.089542 C227.909579,140.346514 227.685068,140.677334 227.769222,141.162908 C227.81731,141.440894 228.006356,141.833106 228.345678,141.751751 C228.720313,141.661991 228.658701,141.129436 228.738647,140.889876 C228.900493,140.405203 230.233434,139.687124 229.452905,139.468878" id="Fill-5264" fill="#FFFFFF"></path>
                                <polygon id="Fill-5265" fill="#899167" points="225.794547 172.187468 343.229735 172.187468 343.229735 171.376927 225.794547 171.376927"></polygon>
                                <path d="M179.011457,154.259011 C179.011457,154.259011 179.670563,149.609509 184.214883,150.158275 C188.559035,150.682875 188.559035,154.831193 188.559035,154.831193 C188.559035,154.831193 186.308515,153.936146 183.921095,153.734411 C181.633607,153.541232 179.011457,154.259011 179.011457,154.259011" id="Fill-5266" fill="#1E272B"></path>
                                <path d="M188.169808,158.253086 L188.230068,158.207305 L188.254864,158.266295 L188.169808,158.253086 Z M183.032353,152.305968 C183.032353,151.891091 183.370472,151.553666 183.785682,151.553666 C184.200892,151.553666 184.53871,151.891091 184.53871,152.305968 C184.53871,152.665158 184.284745,152.965808 183.946927,153.039958 L183.624286,153.039958 C183.286468,152.965808 183.032353,152.665158 183.032353,152.305968 L183.032353,152.305968 Z M179.405914,157.657638 L179.456707,157.692162 L179.385476,157.703719 L179.405914,157.657638 Z M189.253892,159.140028 L188.622286,157.635274 C188.587422,157.552268 188.515891,157.489977 188.428882,157.466711 C188.341723,157.443295 188.248853,157.461758 188.177021,157.516244 L186.962197,158.438309 C186.833862,158.535724 186.809067,158.718396 186.906445,158.846432 C187.003673,158.974317 187.186708,158.999684 187.315043,158.901969 L188.044629,158.348099 C187.917646,158.975818 187.150792,161.975419 184.077216,162.155389 L184.077216,153.606436 C184.673808,153.472846 185.121778,152.941492 185.121778,152.305968 C185.121778,151.570027 184.52233,150.971127 183.785682,150.971127 C183.048733,150.971127 182.449285,151.570027 182.449285,152.305968 C182.449285,152.941492 182.897406,153.472846 183.494148,153.606436 L183.494148,162.152537 C180.860427,161.934292 179.954718,158.787893 179.749593,157.890894 L180.609016,158.474333 C180.74231,158.564694 180.923843,158.530171 181.014008,158.397032 C181.104473,158.264043 181.06991,158.082872 180.936616,157.992512 L179.444384,156.979486 C179.372553,156.930854 179.282838,156.916294 179.200187,156.94031 C179.117085,156.964026 179.04886,157.023615 179.013996,157.102718 L178.222197,158.892212 C178.157278,159.03931 178.2237,159.211175 178.370969,159.276168 C178.409289,159.29313 178.449262,159.301235 178.488785,159.301235 C178.60074,159.301235 178.707435,159.236542 178.755523,159.127569 L179.203944,158.113943 C179.48556,159.267913 180.599699,162.747234 183.785682,162.747234 C187.017348,162.747234 188.162294,160.054888 188.509279,158.872549 L188.716058,159.365178 C188.762944,159.476702 188.871142,159.543947 188.985201,159.543947 C189.022769,159.543947 189.060939,159.536742 189.097757,159.521132 C189.246379,159.45884 189.316106,159.288326 189.253892,159.140028 L189.253892,159.140028 Z" id="Fill-5267" fill="#1E272B"></path>
                                <path d="M242.645406,150.11323 C242.42916,149.617899 275.784373,92.5684368 275.784373,92.5684368 L284.034777,92.6214221 L283.660743,90.995087 L274.9251,90.995087 L240.291046,144.722533 L242.645406,150.11323 Z" id="Fill-5268" fill="#2F3D44"></path>
                                <path d="M286.676238,101.554152 C286.676238,103.011324 285.493723,104.192612 284.034853,104.192612 C282.575982,104.192612 281.393317,103.011324 281.393317,101.554152 C281.393317,100.09698 282.575982,98.9156916 284.034853,98.9156916 C285.493723,98.9156916 286.676238,100.09698 286.676238,101.554152" id="Fill-5269" fill="#1E272B"></path>
                                <path d="M285.547266,101.554152 C285.547266,102.388559 284.870127,103.06476 284.034898,103.06476 C283.199518,103.06476 282.522379,102.388559 282.522379,101.554152 C282.522379,100.719745 283.199518,100.043544 284.034898,100.043544 C284.870127,100.043544 285.547266,100.719745 285.547266,101.554152" id="Fill-5270" fill="#2F3D44"></path>
                                <path d="M275.429814,137.395905 C275.429814,138.294254 274.700529,139.02269 273.801283,139.02269 C272.901887,139.02269 272.172601,138.294254 272.172601,137.395905 C272.172601,136.497556 272.901887,135.76942 273.801283,135.76942 C274.700529,135.76942 275.429814,136.497556 275.429814,137.395905" id="Fill-5271" fill="#1E272B"></path>
                                <path d="M274.73362,137.395905 C274.73362,137.910298 274.316156,138.327276 273.801313,138.327276 C273.28632,138.327276 272.868856,137.910298 272.868856,137.395905 C272.868856,136.881512 273.28632,136.464684 273.801313,136.464684 C274.316156,136.464684 274.73362,136.881512 274.73362,137.395905" id="Fill-5272" fill="#2F3D44"></path>
                                <path d="M329.895014,137.215755 C329.895014,138.014438 329.246727,138.66212 328.446812,138.66212 C327.647199,138.66212 326.998912,138.014438 326.998912,137.215755 C326.998912,136.416772 327.647199,135.76939 328.446812,135.76939 C329.246727,135.76939 329.895014,136.416772 329.895014,137.215755" id="Fill-5273" fill="#1E272B"></path>
                                <path d="M329.276,137.215755 C329.276,137.67296 328.904821,138.043857 328.446782,138.043857 C327.989044,138.043857 327.617865,137.67296 327.617865,137.215755 C327.617865,136.75825 327.989044,136.387502 328.446782,136.387502 C328.904821,136.387502 329.276,136.75825 329.276,137.215755" id="Fill-5274" fill="#2F3D44"></path>
                                <path d="M251.403274,167.419311 C251.403274,168.273681 250.709905,168.966394 249.854389,168.966394 C248.999023,168.966394 248.305653,168.273681 248.305653,167.419311 C248.305653,166.564941 248.999023,165.872229 249.854389,165.872229 C250.709905,165.872229 251.403274,166.564941 251.403274,167.419311" id="Fill-5275" fill="#1E272B"></path>
                                <path d="M255.69976,167.419311 C255.69976,168.273681 255.00639,168.966394 254.150874,168.966394 C253.295508,168.966394 252.602139,168.273681 252.602139,167.419311 C252.602139,166.564941 253.295508,165.872229 254.150874,165.872229 C255.00639,165.872229 255.69976,166.564941 255.69976,167.419311" id="Fill-5276" fill="#1E272B"></path>
                                <path d="M274.317583,167.419311 C274.317583,168.273681 273.624064,168.966394 272.768698,168.966394 C271.913332,168.966394 271.219962,168.273681 271.219962,167.419311 C271.219962,166.564941 271.913332,165.872229 272.768698,165.872229 C273.624064,165.872229 274.317583,166.564941 274.317583,167.419311" id="Fill-5277" fill="#1E272B"></path>
                                <path d="M278.613919,167.419311 C278.613919,168.273681 277.920549,168.966394 277.065033,168.966394 C276.209667,168.966394 275.516298,168.273681 275.516298,167.419311 C275.516298,166.564941 276.209667,165.872229 277.065033,165.872229 C277.920549,165.872229 278.613919,166.564941 278.613919,167.419311" id="Fill-5278" fill="#1E272B"></path>
                                <path d="M299.714076,167.419311 C299.714076,168.273681 299.020707,168.966394 298.165191,168.966394 C297.309825,168.966394 296.616456,168.273681 296.616456,167.419311 C296.616456,166.564941 297.309825,165.872229 298.165191,165.872229 C299.020707,165.872229 299.714076,166.564941 299.714076,167.419311" id="Fill-5279" fill="#1E272B"></path>
                                <path d="M304.010412,167.419311 C304.010412,168.273681 303.317042,168.966394 302.461677,168.966394 C301.606311,168.966394 300.912941,168.273681 300.912941,167.419311 C300.912941,166.564941 301.606311,165.872229 302.461677,165.872229 C303.317042,165.872229 304.010412,166.564941 304.010412,167.419311" id="Fill-5280" fill="#1E272B"></path>
                                <path d="M326.447192,167.419311 C326.447192,168.273681 325.753822,168.966394 324.898456,168.966394 C324.043091,168.966394 323.349571,168.273681 323.349571,167.419311 C323.349571,166.564941 324.043091,165.872229 324.898456,165.872229 C325.753822,165.872229 326.447192,166.564941 326.447192,167.419311" id="Fill-5281" fill="#1E272B"></path>
                                <path d="M330.743677,167.419311 C330.743677,168.273681 330.050308,168.966394 329.194792,168.966394 C328.339426,168.966394 327.646056,168.273681 327.646056,167.419311 C327.646056,166.564941 328.339426,165.872229 329.194792,165.872229 C330.050308,165.872229 330.743677,166.564941 330.743677,167.419311" id="Fill-5282" fill="#1E272B"></path>
                                <g id="Group-14-Copy" opacity="0.526615688" transform="translate(15.000000, 170.758308)">
                                    <mask id="mask-8" fill="white">
                                        <use xlink:href="#path-7"></use>
                                    </mask>
                                    <g id="Clip-13"></g>
                                    <path d="M478,189 L0,189 L0,8.60875155 C0,8.60875155 44.2696286,0 96.8769429,0 C149.484257,0 191.753114,12.8656387 239.443857,12.8656387 C287.1346,12.8656387 330.448229,0 381.088914,0 C431.7296,0 478,8.60875155 478,8.60875155 L478,189 Z" id="Fill-12" fill="url(#linearGradient-9)" mask="url(#mask-8)"></path>
                                </g>
                                <path d="M245.376566,89.0246024 C245.376566,95.7990722 239.878451,101.290786 233.096084,101.290786 C226.313718,101.290786 220.815602,95.7990722 220.815602,89.0246024 C220.815602,82.2502826 226.313718,76.7584185 233.096084,76.7584185 C239.878451,76.7584185 245.376566,82.2502826 245.376566,89.0246024" id="Fill-5286" fill="#FCE3A7"></path>
                                <path d="M240.904409,94.0860093 C240.904409,97.8760379 237.828277,100.948588 234.033831,100.948588 C230.239234,100.948588 227.163253,97.8760379 227.163253,94.0860093 C227.163253,90.2959806 230.239234,87.2234306 234.033831,87.2234306 C237.828277,87.2234306 240.904409,90.2959806 240.904409,94.0860093" id="Fill-5287" fill="#2F3D44"></path>
                                <path d="M244.835636,93.4015376 C244.402843,86.3768508 239.101138,87.2414277 231.310876,85.0799856 C223.520614,82.9185435 219.84188,78.9198756 219.84188,78.9198756 C219.84188,78.9198756 226.117368,72.4355494 235.530601,75.0292799 C244.943834,77.6230104 248.081578,80.5409572 247.756984,86.0526345 C247.43239,91.5643118 244.835636,93.4015376 244.835636,93.4015376" id="Fill-5288" fill="#B46AC6"></path>
                                <path d="M231.581341,88.8625542 C231.581341,90.0264308 230.636712,90.9699603 229.471479,90.9699603 C228.306245,90.9699603 227.361616,90.0264308 227.361616,88.8625542 C227.361616,87.6986777 228.306245,86.7551482 229.471479,86.7551482 C230.636712,86.7551482 231.581341,87.6986777 231.581341,88.8625542" id="Fill-5289" fill="#FFFFFF"></path>
                                <path d="M270.640832,88.0519534 C270.640832,89.21583 269.696203,90.1593595 268.53097,90.1593595 C267.365737,90.1593595 266.421107,89.21583 266.421107,88.0519534 C266.421107,86.8880769 267.365737,85.9445474 268.53097,85.9445474 C269.696203,85.9445474 270.640832,86.8880769 270.640832,88.0519534" id="Fill-5290" fill="#FFFFFF"></path>
                                <path d="M226.549695,34.2206078 C231.770102,35.1269125 225.649697,43.9295355 218.201762,41.9614224 C210.753827,39.9934594 221.863666,33.4072151 226.549695,34.2206078" id="Fill-5291" fill="#9729B2"></path>
                                <path d="M241.697831,27.6937432 C247.431879,27.826882 244.997873,30.5036179 241.535534,30.1253655 C238.073196,29.7471132 239.371573,27.6397071 241.697831,27.6937432" id="Fill-5292" fill="#9729B2"></path>
                                <path d="M254.248808,35.853157 C258.544422,36.7315431 261.119386,41.8511588 253.112729,40.6623657 C245.106071,39.4735725 247.37823,34.4482197 254.248808,35.853157" id="Fill-5293" fill="#9729B2"></path>
                                <path d="M239.750266,42.9859309 C234.79269,44.8904016 237.099413,49.8485096 241.914228,46.9305627 C246.729042,44.0126159 243.969991,41.3648494 239.750266,42.9859309" id="Fill-5294" fill="#9729B2"></path>
                                <path d="M270.406463,39.6536777 C266.88687,39.1128669 267.701511,41.3828314 270.478445,41.7070477 C273.255679,42.031264 273.219613,40.0859661 270.406463,39.6536777" id="Fill-5295" fill="#9729B2"></path>
                                <path d="M252.986513,31.4402278 C254.674703,31.6763353 254.501286,33.4935978 252.481588,33.0973334 C250.461891,32.701069 251.183211,31.1880595 252.986513,31.4402278" id="Fill-5296" fill="#9729B2"></path>
                                <path d="M237.297806,36.1953554 C238.847744,35.082663 240.688013,37.0599322 238.740447,38.2487253 C236.792882,39.4375185 234.989581,37.852461 237.297806,36.1953554" id="Fill-5297" fill="#9729B2"></path>
                                <path d="M226.477998,45.129316 C228.592219,43.7740618 230.950186,45.8497967 227.704243,48.4435272 C224.458301,51.0372577 221.645151,48.227383 226.477998,45.129316" id="Fill-5298" fill="#9729B2"></path>
                                <path d="M232.861685,28.4141939 C235.904155,28.7436637 236.035495,31.0799724 232.897751,30.7197321 C229.760007,30.3594917 229.868205,28.0899775 232.861685,28.4141939" id="Fill-5299" fill="#9729B2"></path>
                                <path d="M255.87175,25.6403432 C258.392464,25.8011004 258.432437,28.3781698 254.934183,27.7657612 C251.435628,27.1533526 252.481543,25.424199 255.87175,25.6403432" id="Fill-5300" fill="#9729B2"></path>
                                <path d="M279.134456,33.9618802 C273.992343,32.6587107 274.590137,37.4201875 279.927759,38.1406682 C285.265681,38.8611489 283.967154,35.1866974 279.134456,33.9618802" id="Fill-5301" fill="#9729B2"></path>
                                <path d="M263.499834,43.7964567 C264.754631,43.7964567 265.609697,45.3094662 263.391486,45.2554301 C261.173576,45.2013941 261.281623,43.7964567 263.499834,43.7964567" id="Fill-5302" fill="#9729B2"></path>
                                <path d="M277.2409,41.4188854 C279.519672,41.7034753 278.214683,43.5803275 276.808108,42.9859309 C275.401533,42.3915344 275.221353,41.1667172 277.2409,41.4188854" id="Fill-5303" fill="#9729B2"></path>
                                <path d="M273.039208,29.3508488 C275.488842,30.0812361 274.657821,28.571829 273.413393,28.1800677 C272.169115,27.7883063 271.528943,28.9005483 273.039208,29.3508488" id="Fill-5304" fill="#9729B2"></path>
                                <path d="M264.291709,25.0759967 C264.275329,25.3536819 263.870939,25.5923412 263.229264,25.5503131 C262.285536,25.4872711 261.732524,25.0234616 261.800148,24.6872373 C262.306575,24.7547823 262.805488,24.8283314 263.295385,24.9078845 C263.630498,24.9619205 263.962757,25.0174576 264.291709,25.0759967" id="Fill-5305" fill="#9729B2"></path>
                                <path d="M250.68278,24.0222936 C250.534008,24.4695921 249.501618,25.0084516 247.829056,25.3161569 C245.217274,25.7949763 243.433509,25.0174576 244.031604,24.2834679 L244.033107,24.2834679 C246.150483,24.1213597 248.367041,24.0328006 250.68278,24.0222936" id="Fill-5306" fill="#9729B2"></path>
                                <path d="M225.792729,30.647669 C222.495693,32.3543077 220.492526,31.5662819 220.823131,30.3970018 C222.447605,29.5294229 224.19831,28.7338922 226.079754,28.0209165 C228.194125,27.9938984 228.137021,29.4348598 225.792729,30.647669" id="Fill-5307" fill="#9729B2"></path>
                                <path d="M238.354285,24.9138885 C238.18748,25.0925077 237.828322,25.2876379 237.315734,25.424229 C236.327074,25.6884052 235.801111,25.5788321 235.740851,25.3536819 C236.593061,25.1930748 237.463154,25.0459766 238.354285,24.9138885" id="Fill-5308" fill="#9729B2"></path>
                                <path d="M264.094909,37.2040583 C266.457985,37.9494557 266.367068,39.4375485 263.409504,38.2847794 C260.45224,37.1320103 262.7244,36.7717699 264.094909,37.2040583" id="Fill-5309" fill="#9729B2"></path>
                                <path d="M272.389974,36.3034575 C273.609757,36.1728704 273.760483,37.0599622 272.336026,37.2400824 C270.911267,37.4202026 270.875352,36.4655656 272.389974,36.3034575" id="Fill-5310" fill="#9729B2"></path>
                                <path d="M211.781123,45.9578838 C214.323928,45.7990778 213.566391,47.3628211 211.564727,47.6330014 C209.563062,47.9031817 209.184369,46.1199919 211.781123,45.9578838" id="Fill-5311" fill="#9729B2"></path>
                                <path d="M219.327894,46.3631842 C220.637692,46.2069299 221.032014,47.5249593 219.111498,47.5789954 C217.190982,47.6330314 217.515576,46.5793284 219.327894,46.3631842" id="Fill-5312" fill="#9729B2"></path>
                                <path d="M211.645815,38.2848094 C213.448215,37.5833914 213.458133,39.4465845 211.294172,40.1220352 C209.13021,40.7974858 209.563002,39.0953502 211.645815,38.2848094" id="Fill-5313" fill="#9729B2"></path>
                                <path d="M265.248976,29.9631973 C268.603417,30.5017567 272.642512,35.5829468 264.635854,34.2860815 C256.629196,32.9892163 259.189884,28.9905484 265.248976,29.9631973" id="Fill-5314" fill="#9729B2"></path>
                                <path d="M129.888447,26.2653752 C131.025429,26.3663926 129.83525,28.2273342 128.203262,27.9476976 C126.571275,27.6682111 128.867779,26.1747147 129.888447,26.2653752" id="Fill-5315" fill="#9729B2"></path>
                                <path d="M136.003142,23.3266095 C138.217896,23.2153853 137.348555,24.2449222 136.003592,24.2049955 C134.65863,24.1650689 135.104647,23.3716395 136.003142,23.3266095" id="Fill-5316" fill="#9729B2"></path>
                                <path d="M151.577308,22.8688341 C152.285404,23.0477534 152.667554,23.8686511 151.34348,23.6049252 C150.019556,23.3411992 150.444685,22.5827432 151.577308,22.8688341" id="Fill-5317" fill="#9729B2"></path>
                                <path d="M125.966553,25.4966223 C124.649692,25.8907853 125.279495,26.5009424 126.303019,26.1564625 C127.326542,25.8118326 127.019079,25.1815621 125.966553,25.4966223" id="Fill-5318" fill="#9729B2"></path>
                                <path d="M140.453569,24.3599439 C141.110722,24.3979193 141.090886,25.0559583 140.301791,24.9695006 C139.512696,24.883193 139.751634,24.3192668 140.453569,24.3599439" id="Fill-5319" fill="#9729B2"></path>
                                <path d="M134.905277,25.7746828 C135.474218,25.3317373 136.235061,25.9912773 135.514792,26.4726485 C134.794524,26.9538695 134.058026,26.4342228 134.905277,25.7746828" id="Fill-5320" fill="#9729B2"></path>
                                <path d="M132.614242,23.8306458 C133.796156,23.8647185 133.907209,24.7006262 132.687877,24.658298 C131.468545,24.6158196 131.451414,23.7971734 132.614242,23.8306458" id="Fill-5321" fill="#9729B2"></path>
                                <path d="M141.415976,22.1954398 C142.392313,22.1832817 142.474363,23.108499 141.109415,22.9854168 C139.744466,22.8623347 140.103022,22.2118007 141.415976,22.1954398" id="Fill-5322" fill="#9729B2"></path>
                                <path d="M150.602504,24.5410547 C148.585812,24.2153374 148.939709,25.9099681 151.016812,26.0208921 C153.093915,26.1318161 152.497923,24.847259 150.602504,24.5410547" id="Fill-5323" fill="#9729B2"></path>
                                <path d="M148.402957,22.6475714 C149.366521,22.8421012 149.006912,22.3226046 148.517016,22.2163337 C148.026968,22.1100628 147.808919,22.5276414 148.402957,22.6475714" id="Fill-5324" fill="#9729B2"></path>
                                <path d="M144.837154,21.359412 C144.844517,21.4593787 144.701606,21.5659498 144.453652,21.5848624 C144.089084,21.6124808 143.854355,21.4761899 143.863672,21.3525074 C144.060983,21.3498056 144.25574,21.3496555 144.44734,21.3522072 C144.57823,21.3537082 144.708218,21.3559597 144.837154,21.359412" id="Fill-5325" fill="#9729B2"></path>
                                <path d="M139.400621,21.6091186 C139.360498,21.7754296 138.984209,22.0109367 138.353053,22.189706 C137.367249,22.4682918 136.651789,22.2628047 136.853608,21.9752129 L136.854059,21.9752129 C137.661938,21.8303662 138.510692,21.7078845 139.400621,21.6091186" id="Fill-5326" fill="#9729B2"></path>
                                <path d="M129.591714,24.6571422 C128.285673,25.2026061 127.527686,24.8774892 127.677961,24.463513 C128.32204,24.1852273 129.013305,23.9354607 129.75356,23.7179656 C130.570456,23.7523385 130.520414,24.2695836 129.591714,24.6571422" id="Fill-5327" fill="#9729B2"></path>
                                <path d="M134.628214,22.3909903 C134.568555,22.4597361 134.434961,22.5398896 134.240955,22.6032319 C133.86647,22.7255635 133.660894,22.700797 133.63174,22.6215441 C133.956184,22.5401898 134.287992,22.4631884 134.628214,22.3909903" id="Fill-5328" fill="#9729B2"></path>
                                <path d="M144.886685,26.1234105 C145.817338,26.3257455 145.820795,26.863104 144.650452,26.5307823 C143.48011,26.1984605 144.346896,26.0060322 144.886685,26.1234105" id="Fill-5329" fill="#9729B2"></path>
                                <path d="M148.062268,25.569616 C148.529323,25.4888621 148.610321,25.8036221 148.065574,25.9077916 C147.520977,26.0119611 147.482356,25.6698829 148.062268,25.569616" id="Fill-5330" fill="#9729B2"></path>
                                <path d="M124.688403,27.9665952 C125.365242,27.6644436 125.417387,28.3338903 124.600341,28.6366423 C123.783446,28.9393943 123.90607,28.3157282 124.688403,27.9665952" id="Fill-5331" fill="#9729B2"></path>
                                <path d="M145.252319,22.4803299 C146.559863,22.580897 148.249105,24.2950406 145.127891,24.0509778 C142.006677,23.8069149 142.890595,22.2988588 145.252319,22.4803299" id="Fill-5332" fill="#9729B2"></path>
                                <path d="M211.618811,42.7750703 C219.447092,32.2572529 229.579692,24.9518788 249.704534,25.6918726 C269.829226,26.4320164 281.514769,38.45804 281.839363,43.0835261 C282.163807,47.708862 270.424917,37.3403943 249.271742,36.9573387 C228.118567,36.5741331 207.074492,48.8806939 211.618811,42.7750703" id="Fill-5333" fill="#FFFFFF"></path>
                                <path d="M370.092869,49.3441431 C368.955887,49.4451605 370.146216,51.3061021 371.778204,51.0266156 C373.410041,50.7471291 371.113537,49.2534826 370.092869,49.3441431" id="Fill-5334" fill="#9729B2"></path>
                                <path d="M363.97825,46.4053924 C361.763645,46.2941682 362.632837,47.323705 363.977799,47.2837784 C365.322761,47.2438518 364.876745,46.4504224 363.97825,46.4053924" id="Fill-5335" fill="#9729B2"></path>
                                <path d="M348.404083,45.947692 C347.695987,46.1264613 347.313837,46.9475091 348.637911,46.6837831 C349.961835,46.419907 349.536707,45.6616011 348.404083,45.947692" id="Fill-5336" fill="#9729B2"></path>
                                <path d="M374.014839,48.5754652 C375.331699,48.9696282 374.701746,49.5796352 373.678373,49.2351553 C372.654849,48.8906755 372.962312,48.260405 374.014839,48.5754652" id="Fill-5337" fill="#9729B2"></path>
                                <path d="M359.527822,47.4388018 C358.870669,47.4767772 358.890506,48.1348162 359.6796,48.0483585 C360.468845,47.9619008 360.229757,47.3981247 359.527822,47.4388018" id="Fill-5338" fill="#9729B2"></path>
                                <path d="M365.076115,48.8534657 C364.507173,48.4105202 363.74618,49.0702103 364.466448,49.5514314 C365.186717,50.0326524 365.923366,49.5131558 365.076115,48.8534657" id="Fill-5339" fill="#9729B2"></path>
                                <path d="M367.367074,46.9094136 C366.18531,46.9434864 366.074107,47.7793941 367.293439,47.7370658 C368.512771,47.6945875 368.529902,46.8759413 367.367074,46.9094136" id="Fill-5340" fill="#9729B2"></path>
                                <path d="M358.565415,45.2742977 C357.589228,45.2621396 357.507028,46.1872068 358.871977,46.0641247 C360.236925,45.9410426 359.878369,45.2906586 358.565415,45.2742977" id="Fill-5341" fill="#9729B2"></path>
                                <path d="M349.378828,47.6198226 C351.39567,47.2941053 351.041622,48.988886 348.964669,49.0996599 C346.887567,49.210584 347.483408,47.9260269 349.378828,47.6198226" id="Fill-5342" fill="#9729B2"></path>
                                <path d="M351.578359,45.7263543 C350.614795,45.9208841 350.974404,45.4015376 351.464451,45.2952667 C351.954498,45.1888457 352.172397,45.6064243 351.578359,45.7263543" id="Fill-5343" fill="#9729B2"></path>
                                <path d="M355.15928,44.5476779 C355.160332,44.6479448 355.311809,44.7420576 355.560364,44.7402564 C355.925983,44.7369542 356.148391,44.5814505 356.128705,44.4591188 C355.931994,44.472928 355.737839,44.4891389 355.54714,44.5077513 C355.416701,44.5202096 355.287464,44.5334184 355.15928,44.5476779" id="Fill-5344" fill="#9729B2"></path>
                                <path d="M360.652692,44.3557299 C360.70093,44.5199394 361.088489,44.7362337 361.72791,44.8831818 C362.726488,45.1123847 363.430828,44.8713238 363.214882,44.594239 L363.214281,44.594239 C362.400241,44.4899194 361.546378,44.4097659 360.652692,44.3557299" id="Fill-5345" fill="#9729B2"></path>
                                <path d="M370.541199,47.5013185 C371.788783,48.1697145 372.574572,47.9187471 372.464721,47.4923125 C371.850396,47.1533864 371.18633,46.8383262 370.47027,46.5508844 C369.654125,46.506755 369.654125,47.0264017 370.541199,47.5013185" id="Fill-5346" fill="#9729B2"></path>
                                <path d="M365.613528,45.027368 C365.673188,45.0961138 365.806632,45.1762673 366.000787,45.2396096 C366.375273,45.3619412 366.580849,45.3371747 366.610003,45.2579218 C366.285559,45.1765675 365.953901,45.0995661 365.613528,45.027368" id="Fill-5347" fill="#9729B2"></path>
                                <path d="M355.094707,49.2021783 C354.164203,49.4045133 354.160597,49.9418719 355.330939,49.6095501 C356.501282,49.2773785 355.634495,49.0848 355.094707,49.2021783" id="Fill-5348" fill="#9729B2"></path>
                                <path d="M351.919123,48.6484739 C351.452218,48.56772 351.37107,48.8823299 351.915817,48.9864994 C352.460414,49.090819 352.499035,48.7487408 351.919123,48.6484739" id="Fill-5349" fill="#9729B2"></path>
                                <path d="M375.293064,51.0453781 C374.616074,50.7432265 374.563929,51.4126732 375.380975,51.7154251 C376.19802,52.0181771 376.075246,51.394511 375.293064,51.0453781" id="Fill-5350" fill="#9729B2"></path>
                                <path d="M354.728997,45.5591728 C353.421453,45.6595898 351.732211,47.3738835 354.853425,47.1298207 C357.974789,46.8857579 357.090871,45.3777017 354.728997,45.5591728" id="Fill-5351" fill="#9729B2"></path>
                                <path d="M245.809403,79.1360198 C249.488138,84.1073366 248.83895,91.4562397 230.445276,82.1620387 C212.051603,72.8678378 211.186019,67.4642326 226.550146,70.4902515 C241.914273,73.5162704 245.809403,79.1360198 245.809403,79.1360198" id="Fill-5352" fill="#9729B2"></path>
                                <path d="M253.491422,78.8658696 C249.812687,83.8371864 250.461876,91.1860895 268.855549,81.8918885 C287.249372,72.5976875 288.114807,67.1940823 272.75068,70.2201012 C257.386553,73.2461202 253.491422,78.8658696 253.491422,78.8658696" id="Fill-5353" fill="#9729B2"></path>
                                <g id="Group-5356" transform="translate(165.532141, 170.249825)">
                                    <mask id="mask-11" fill="white">
                                        <use xlink:href="#path-10"></use>
                                    </mask>
                                    <g id="Clip-5355"></g>
                                    <path d="M177.874919,0 C177.702102,0.669446646 177.129554,1.17078113 176.430775,1.2458312 C165.729684,2.3850913 145.872332,7.75567449 138.596011,7.33989709 C131.145371,6.91511368 135.002933,5.23399205 135.130667,5.179956 C134.84815,5.24299806 116.752021,9.28519497 104.513616,9.28519497 C92.3894206,9.28519497 93.1227632,6.77852255 93.1513154,6.69296546 C92.9454385,6.74099751 75.4218582,10.8987715 59.503216,9.60941128 C43.7438654,8.33356005 49.6767267,4.96381179 49.8690788,4.85573969 C49.451314,4.92328475 14.2102984,10.6676173 3.13201746,7.01568077 C-6.4810812,3.84706671 8.69971021,1.40043435 13.0546828,0.788025761 L13.0561856,0.788025761 C39.1965406,2.72131563 63.8536804,5.31054313 90.1591878,5.31054313 C120.266956,5.31054313 148.097906,1.91827985 177.874919,0" id="Fill-5354" mask="url(#mask-11)"></path>
                                </g>
                                <path d="M311.246369,256.773012 C311.56961,256.510637 312.04463,256.55972 312.307461,256.882585 C312.570142,257.205601 312.521002,257.680067 312.19776,257.942592 C311.874368,258.204967 311.399349,258.155885 311.136668,257.833019 C310.873837,257.510004 310.922977,257.035387 311.246369,256.773012" id="Fill-5365" fill="#FFFFFF"></path>
                                <path d="M305.671808,257.282977 C306.353306,256.729708 307.35489,256.833127 307.908804,257.513981 C308.462567,258.194686 308.359028,259.195103 307.67738,259.748372 C306.995882,260.301491 305.994299,260.198072 305.440385,259.517368 C304.886471,258.836514 304.99016,257.836246 305.671808,257.282977" id="Fill-5366" fill="#FFFFFF"></path>
                                <path d="M310.147632,244.938261 C310.82913,244.384992 311.830713,244.488561 312.384627,245.169265 C312.938391,245.850119 312.834852,246.850387 312.153354,247.403656 C311.471706,247.956775 310.470123,247.853356 309.916209,247.172652 C309.362294,246.491798 309.465984,245.49153 310.147632,244.938261" id="Fill-5367" fill="#FFFFFF"></path>
                                <path d="M305.895748,233.468073 C306.407435,233.052746 307.159412,233.130498 307.575373,233.641589 C307.991034,234.15283 307.913342,234.903781 307.401655,235.319258 C306.889818,235.734736 306.137841,235.656984 305.72203,235.145893 C305.306069,234.634501 305.383911,233.88355 305.895748,233.468073" id="Fill-5368" fill="#FFFFFF"></path>
                                <path d="M307.43446,236.480478 C307.676704,236.283847 308.032555,236.320772 308.229415,236.562583 C308.426276,236.804544 308.389308,237.159981 308.147215,237.356613 C307.904972,237.553094 307.54912,237.516319 307.35226,237.274508 C307.15555,237.032546 307.192367,236.677109 307.43446,236.480478" id="Fill-5369" fill="#FFFFFF"></path>
                                <path d="M305.896334,238.460209 C306.27638,238.151603 306.834953,238.209392 307.143918,238.588995 C307.452583,238.968748 307.395028,239.52652 307.014832,239.835126 C306.634636,240.143732 306.076063,240.085944 305.767398,239.70634 C305.458433,239.326437 305.516289,238.768665 305.896334,238.460209" id="Fill-5370" fill="#FFFFFF"></path>
                                <path d="M304.822844,236.856014 C305.011289,236.702911 305.288246,236.731581 305.441226,236.919956 C305.594507,237.108182 305.565804,237.384666 305.377209,237.537618 C305.188914,237.690721 304.911957,237.661901 304.758827,237.473676 C304.605847,237.28545 304.634399,237.008966 304.822844,236.856014" id="Fill-5371" fill="#FFFFFF"></path>
                                <path d="M308.007234,261.945898 C308.418537,261.880154 308.805495,262.159941 308.871316,262.570765 C308.937136,262.981589 308.657023,263.368097 308.24572,263.433841 C307.834417,263.499735 307.447459,263.219798 307.381638,262.808974 C307.315668,262.39815 307.595931,262.011642 308.007234,261.945898" id="Fill-5372" fill="#FFFFFF"></path>
                                <path d="M305.04444,262.566382 C305.455743,262.500638 305.842701,262.780425 305.908522,263.191249 C305.974342,263.602073 305.694229,263.988581 305.282926,264.054325 C304.871623,264.120219 304.484665,263.840282 304.418844,263.429458 C304.352874,263.018634 304.633137,262.632126 305.04444,262.566382" id="Fill-5373" fill="#FFFFFF"></path>
                                <path d="M304.927766,266.997999 C304.332827,267.376852 303.542981,267.202135 303.163837,266.607889 C302.784543,266.013642 302.959463,265.224866 303.554402,264.846013 C304.149341,264.467311 304.939037,264.642027 305.318331,265.236274 C305.697475,265.83052 305.522705,266.619296 304.927766,266.997999" id="Fill-5374" fill="#FFFFFF"></path>
                                <path d="M299.01656,268.161725 C298.665367,268.385375 298.199063,268.282256 297.975003,267.931472 C297.751093,267.580538 297.854482,267.114627 298.205675,266.890978 C298.557018,266.667328 299.023322,266.770447 299.247232,267.121381 C299.471142,267.472315 299.367903,267.938076 299.01656,268.161725" id="Fill-5375" fill="#FFFFFF"></path>
                                <path d="M298.953459,272.229529 C298.736612,273.208332 297.766436,273.825995 296.786492,273.6091 C295.806698,273.392505 295.188166,272.423459 295.405313,271.444656 C295.62216,270.466003 296.592337,269.848341 297.572281,270.065085 C298.552074,270.28168 299.170456,271.250726 298.953459,272.229529" id="Fill-5376" fill="#FFFFFF"></path>
                                <path d="M364.877271,234.110247 C365.339517,233.735146 366.018911,233.805243 366.394598,234.267101 C366.770286,234.728809 366.699957,235.407412 366.237711,235.782663 C365.775465,236.157913 365.095921,236.087666 364.720383,235.625958 C364.344696,235.1641 364.414874,234.485497 364.877271,234.110247" id="Fill-5377" fill="#FFFFFF"></path>
                                <path d="M356.905927,234.839343 C357.880461,234.048315 359.312734,234.196314 360.104683,235.169864 C360.896633,236.143413 360.748462,237.573868 359.773928,238.364745 C358.799243,239.155923 357.366971,239.007924 356.575172,238.034375 C355.783072,237.060975 355.931393,235.630521 356.905927,234.839343" id="Fill-5378" fill="#FFFFFF"></path>
                                <path d="M363.306129,217.187191 C364.280663,216.396163 365.712935,216.544162 366.504885,217.517561 C367.296835,218.491261 367.148664,219.921565 366.17413,220.712593 C365.199445,221.503621 363.767324,221.355622 362.975374,220.382223 C362.183274,219.408673 362.331595,217.978369 363.306129,217.187191" id="Fill-5379" fill="#FFFFFF"></path>
                                <path d="M357.226149,200.785523 C357.957988,200.191577 359.033207,200.302651 359.627845,201.033638 C360.222484,201.764626 360.11128,202.838743 359.379441,203.432689 C358.647751,204.026635 357.572533,203.915561 356.977744,203.184423 C356.383256,202.453586 356.494309,201.379469 357.226149,200.785523" id="Fill-5380" fill="#FFFFFF"></path>
                                <path d="M359.426567,205.093127 C359.772951,204.811989 360.281783,204.864674 360.563098,205.210505 C360.844713,205.556486 360.791967,206.064875 360.445582,206.345863 C360.099349,206.627 359.590517,206.574315 359.309052,206.228334 C359.027587,205.882503 359.080183,205.374264 359.426567,205.093127" id="Fill-5381" fill="#FFFFFF"></path>
                                <path d="M357.227035,207.923926 C357.77058,207.482931 358.569293,207.565186 359.010951,208.108248 C359.45261,208.651161 359.370109,209.448943 358.826564,209.890087 C358.282868,210.331232 357.484156,210.248677 357.042497,209.705764 C356.600839,209.162852 356.68349,208.36507 357.227035,207.923926" id="Fill-5382" fill="#FFFFFF"></path>
                                <path d="M355.69199,205.630065 C355.961433,205.411369 356.357559,205.452196 356.576509,205.721326 C356.79546,205.990456 356.754435,206.38612 356.484842,206.604815 C356.215398,206.823511 355.819574,206.782684 355.600623,206.513404 C355.381672,206.244275 355.422547,205.848761 355.69199,205.630065" id="Fill-5383" fill="#FFFFFF"></path>
                                <path d="M360.245446,241.507212 C360.833773,241.413249 361.386936,241.813266 361.481158,242.400758 C361.575381,242.98825 361.174747,243.540919 360.586571,243.635032 C359.998243,243.728994 359.445081,243.328977 359.351009,242.741485 C359.256786,242.153993 359.657269,241.601325 360.245446,241.507212" id="Fill-5384" fill="#FFFFFF"></path>
                                <path d="M356.00883,242.394484 C356.597007,242.300371 357.15032,242.700388 357.244542,243.28788 C357.338615,243.875522 356.938131,244.428041 356.349955,244.522153 C355.761628,244.616266 355.208465,244.216249 355.114242,243.628607 C355.02017,243.041115 355.420653,242.488447 356.00883,242.394484" id="Fill-5385" fill="#FFFFFF"></path>
                                <path d="M355.84198,248.731517 C354.991272,249.273078 353.861955,249.023312 353.319762,248.173595 C352.777419,247.323878 353.027477,246.195875 353.878335,245.654314 C354.729042,245.112602 355.858209,245.362369 356.400552,246.212236 C356.942745,247.061953 356.692687,248.189955 355.84198,248.731517" id="Fill-5386" fill="#FFFFFF"></path>
                                <path d="M349.696103,251.215359 C349.193734,251.535222 348.526963,251.387524 348.206727,250.885889 C347.886641,250.384104 348.034211,249.71811 348.536581,249.398397 C349.03895,249.078533 349.705721,249.225932 350.025957,249.727716 C350.346043,250.229501 350.198473,250.895496 349.696103,251.215359" id="Fill-5387" fill="#FFFFFF"></path>
                                <path d="M352.925546,257.455067 C352.615227,258.854451 351.227888,259.73779 349.826873,259.427983 C348.425708,259.117876 347.541489,257.732302 347.851657,256.332768 C348.161975,254.933235 349.549164,254.050045 350.95033,254.360002 C352.351495,254.669809 353.235713,256.055533 352.925546,257.455067" id="Fill-5388" fill="#FFFFFF"></path>
                                <path d="M231.958787,249.307586 C231.635545,249.045211 231.160526,249.094144 230.897695,249.417159 C230.635014,249.740175 230.684154,250.214641 231.007395,250.477016 C231.330787,250.739391 231.805807,250.690459 232.068488,250.367443 C232.331319,250.044428 232.282179,249.569961 231.958787,249.307586" id="Fill-5389" fill="#FFFFFF"></path>
                                <path d="M237.533347,249.817401 C236.8517,249.264132 235.850266,249.367701 235.296352,250.048556 C234.742588,250.72926 234.846128,251.729677 235.527776,252.282946 C236.209273,252.836065 237.210857,252.732646 237.764771,252.051792 C238.318535,251.371088 238.214995,250.37067 237.533347,249.817401" id="Fill-5390" fill="#FFFFFF"></path>
                                <path d="M233.057524,237.472685 C232.375876,236.919566 231.374442,237.022985 230.820528,237.703839 C230.266765,238.384543 230.370304,239.384961 231.051952,239.93823 C231.73345,240.491349 232.735033,240.38793 233.288947,239.707226 C233.842711,239.026372 233.739171,238.025954 233.057524,237.472685" id="Fill-5391" fill="#FFFFFF"></path>
                                <path d="M237.309392,226.002632 C236.797706,225.587155 236.045579,225.664907 235.629768,226.176148 C235.213956,226.687389 235.291799,227.43834 235.803486,227.853817 C236.315323,228.269145 237.067299,228.191543 237.483111,227.680302 C237.898922,227.169061 237.821229,226.41811 237.309392,226.002632" id="Fill-5392" fill="#FFFFFF"></path>
                                <path d="M235.77062,229.015052 C235.528377,228.818421 235.172526,228.855346 234.975665,229.097157 C234.778955,229.338968 234.815772,229.694405 235.057866,229.891187 C235.300109,230.087668 235.655961,230.050893 235.852821,229.808932 C236.049531,229.567121 236.012864,229.211683 235.77062,229.015052" id="Fill-5393" fill="#FFFFFF"></path>
                                <path d="M237.308806,230.994633 C236.928761,230.686177 236.370188,230.743816 236.061222,231.123569 C235.752407,231.503322 235.810113,232.061095 236.190309,232.3697 C236.570355,232.678156 237.128927,232.620518 237.437742,232.240764 C237.746708,231.861011 237.689002,231.303239 237.308806,230.994633" id="Fill-5394" fill="#FFFFFF"></path>
                                <path d="M238.382312,229.390438 C238.193867,229.237486 237.91691,229.266155 237.763779,229.45438 C237.610649,229.642606 237.639352,229.91909 237.827797,230.072193 C238.016242,230.225145 238.293199,230.196475 238.446329,230.00825 C238.599459,229.820024 238.570757,229.54354 238.382312,229.390438" id="Fill-5395" fill="#FFFFFF"></path>
                                <path d="M235.197922,254.480472 C234.786619,254.414729 234.399661,254.694515 234.33384,255.105339 C234.26802,255.516163 234.548132,255.902671 234.959435,255.968415 C235.370738,256.034309 235.757697,255.754372 235.823517,255.343548 C235.889338,254.932724 235.609225,254.546216 235.197922,254.480472" id="Fill-5396" fill="#FFFFFF"></path>
                                <path d="M238.160716,255.100956 C237.749413,255.035213 237.362455,255.314849 237.296634,255.725823 C237.230814,256.136647 237.510926,256.523155 237.922229,256.588899 C238.333532,256.654643 238.720491,256.374856 238.786311,255.964032 C238.852282,255.553058 238.572019,255.16655 238.160716,255.100956" id="Fill-5397" fill="#FFFFFF"></path>
                                <path d="M238.27739,259.532573 C238.872329,259.911276 239.662024,259.736709 240.041319,259.142313 C240.420613,258.548066 240.245693,257.75944 239.650754,257.380587 C239.055815,257.001885 238.265969,257.176451 237.886825,257.770698 C237.50753,258.365094 237.68245,259.15387 238.27739,259.532573" id="Fill-5398" fill="#FFFFFF"></path>
                                <path d="M244.188521,260.696285 C244.539864,260.919934 245.006168,260.816815 245.230078,260.465881 C245.453988,260.114947 245.350749,259.649186 244.999406,259.425537 C244.648213,259.201888 244.181759,259.305006 243.957849,259.65594 C243.733939,260.006725 243.837178,260.472635 244.188521,260.696285" id="Fill-5399" fill="#FFFFFF"></path>
                                <path d="M244.251622,264.764089 C244.468619,265.742741 245.438795,266.360404 246.418589,266.143659 C247.398382,265.926914 248.016915,264.957868 247.799917,263.979215 C247.58292,263.000562 246.612744,262.3829 245.63295,262.599494 C244.653006,262.816239 244.034624,263.785286 244.251622,264.764089" id="Fill-5400" fill="#FFFFFF"></path>
                                <path d="M179.023719,240.981276 C178.497756,240.701789 177.844661,240.901122 177.564848,241.426323 C177.284886,241.951673 177.484301,242.604159 178.010264,242.883645 C178.536227,243.163132 179.189322,242.963799 179.469135,242.438598 C179.749097,241.913248 179.549682,241.260762 179.023719,240.981276" id="Fill-5401" fill="#FFFFFF"></path>
                                <path d="M186.986752,240.167313 C185.878173,239.57802 184.501051,239.998 183.911222,241.105289 C183.321242,242.212728 183.741711,243.588095 184.850291,244.177388 C185.959021,244.766682 187.335991,244.346701 187.925971,243.239413 C188.515952,242.131974 188.095331,240.756606 186.986752,240.167313" id="Fill-5402" fill="#FFFFFF"></path>
                                <path d="M177.310673,224.071999 C176.202094,223.482706 174.824972,223.902686 174.235143,225.009975 C173.645163,226.117414 174.065632,227.492782 175.174212,228.082075 C176.282942,228.671368 177.659912,228.251388 178.249892,227.144099 C178.839722,226.03666 178.419253,224.661292 177.310673,224.071999" id="Fill-5403" fill="#FFFFFF"></path>
                                <path d="M180.122831,206.809162 C179.290457,206.366817 178.256565,206.682027 177.813554,207.513432 C177.370543,208.344986 177.686271,209.377675 178.518644,209.820171 C179.351018,210.262666 180.385061,209.947305 180.827922,209.115751 C181.270933,208.284346 180.955205,207.251657 180.122831,206.809162" id="Fill-5404" fill="#FFFFFF"></path>
                                <path d="M178.791845,211.458754 C178.397823,211.249364 177.908678,211.398714 177.699044,211.792126 C177.48941,212.185539 177.638784,212.674415 178.032655,212.883655 C178.426676,213.093194 178.915972,212.943995 179.125606,212.550282 C179.335239,212.15687 179.185866,211.668294 178.791845,211.458754" id="Fill-5405" fill="#FFFFFF"></path>
                                <path d="M181.494888,213.814771 C180.876656,213.486202 180.1086,213.720358 179.779648,214.33787 C179.450546,214.955532 179.685125,215.722544 180.303357,216.051113 C180.921739,216.379832 181.689645,216.145526 182.018597,215.528014 C182.347699,214.910502 182.11312,214.14334 181.494888,213.814771" id="Fill-5406" fill="#FFFFFF"></path>
                                <path d="M182.560173,211.269072 C182.253612,211.106064 181.872965,211.222241 181.709766,211.528445 C181.546718,211.83465 181.662881,212.214853 181.969442,212.377862 C182.276003,212.540721 182.65665,212.424543 182.819849,212.118339 C182.982897,211.812285 182.866735,211.431931 182.560173,211.269072" id="Fill-5407" fill="#FFFFFF"></path>
                                <path d="M184.991865,247.351736 C184.396475,247.3723 183.930622,247.871083 183.95121,248.46578 C183.971647,249.060476 184.471011,249.525787 185.066401,249.505373 C185.661791,249.484659 186.127795,248.986027 186.107057,248.39133 C186.086619,247.796633 185.587255,247.331173 184.991865,247.351736" id="Fill-5408" fill="#FFFFFF"></path>
                                <path d="M189.320284,247.409495 C188.724894,247.430059 188.259041,247.928841 188.279479,248.523538 C188.300066,249.118085 188.79943,249.583395 189.39482,249.562982 C189.99021,249.542418 190.456063,249.043635 190.435476,248.448938 C190.414888,247.854392 189.915524,247.388781 189.320284,247.409495" id="Fill-5409" fill="#FFFFFF"></path>
                                <path d="M190.70283,253.596443 C191.641899,253.964788 192.70209,253.50293 193.070865,252.564954 C193.43949,251.626979 192.977244,250.568022 192.038175,250.199676 C191.099105,249.831481 190.038915,250.293189 189.670139,251.231165 C189.301364,252.16914 189.763611,253.228247 190.70283,253.596443" id="Fill-5410" fill="#FFFFFF"></path>
                                <path d="M197.211921,254.854702 C197.766436,255.072197 198.392482,254.799465 198.610231,254.245596 C198.827829,253.691726 198.55493,253.066559 198.000415,252.849064 C197.4459,252.631419 196.819853,252.904301 196.602105,253.45802 C196.384506,254.01204 196.657406,254.637207 197.211921,254.854702" id="Fill-5411" fill="#FFFFFF"></path>
                                <path d="M195.242866,261.597921 C195.816467,262.911748 197.34792,263.512298 198.663278,262.939366 C199.978636,262.366284 200.580037,260.836763 200.006287,259.522937 C199.432687,258.20911 197.901233,257.608409 196.585875,258.181342 C195.270517,258.754424 194.669266,260.283944 195.242866,261.597921" id="Fill-5412" fill="#FFFFFF"></path>
                            </g>
                        </g>
                    </g>
                </g>
            </g>
        </g>
    </g>
</svg>