<?xml version="1.0" encoding="UTF-8"?>
<svg width="18px" height="14px" viewBox="0 0 18 14" version="1.1" xmlns="http://www.w3.org/2000/svg" xmlns:xlink="http://www.w3.org/1999/xlink">
    <title>2CB087E1-41B2-4DAE-99A4-9ABA9F709CA8@1x</title>
    <g id="Page-1" stroke="none" stroke-width="1" fill="none" fill-rule="evenodd">
        <g id="Desktop-HD" transform="translate(-922.000000, -449.000000)" fill="#FFFFFF">
            <g id="Search-box" transform="translate(475.000000, 426.000000)">
                <g id="Arrow" transform="translate(434.000000, 8.000000)">
                    <path d="M30.932,22.294 C30.893,22.397 30.836,22.495 30.752,22.579 L24.528,28.752 C24.216,29.064 23.709,29.064 23.397,28.752 C23.084,28.443 23.084,27.941 23.397,27.631 L28.317,22.75 L13.766,22.75 C13.343,22.75 13,22.407 13,21.984 C13,21.561 13.343,21.218 13.766,21.218 L28.312,21.218 L23.397,16.342 C23.084,16.032 23.084,15.53 23.397,15.22 C23.709,14.91 24.216,14.91 24.528,15.22 L30.752,21.394 C30.834,21.475 30.892,21.571 30.931,21.673 C30.974,21.768 31,21.872 31,21.984 C31,22.095 30.974,22.199 30.932,22.294 L30.932,22.294 Z" id="Shape"></path>
                </g>
            </g>
        </g>
    </g>
</svg>